<svg xmlns="http://www.w3.org/2000/svg" xmlns:xlink="http://www.w3.org/1999/xlink" contentStyleType="text/css" data-diagram-type="DESCRIPTION" height="485px" preserveAspectRatio="none" style="width:1053px;height:485px;background:#FFFFFF;" version="1.1" viewBox="0 0 1053 485" width="1053px" zoomAndPan="magnify"><defs/><g><!--cluster pc--><g class="cluster" data-entity="pc" data-source-line="5" data-uid="ent0002" id="cluster_pc"><polygon fill="none" points="16,16,26,6,158,6,158,211.61,148,221.61,16,221.61,16,16" style="stroke:#181818;stroke-width:1;"/><line style="stroke:#181818;stroke-width:1;" x1="148" x2="158" y1="16" y2="6"/><line style="stroke:#181818;stroke-width:1;" x1="16" x2="148" y1="16" y2="16"/><line style="stroke:#181818;stroke-width:1;" x1="148" x2="148" y1="16" y2="221.61"/><text fill="#000000" font-family="sans-serif" font-size="11" font-weight="bold" lengthAdjust="spacing" textLength="36.1636" x="64.9182" y="29.2104">Client</text></g><!--cluster server--><g class="cluster" data-entity="server" data-source-line="11" data-uid="ent0006" id="cluster_server"><polygon fill="none" points="182,16,192,6,833,6,833,458.22,823,468.22,182,468.22,182,16" style="stroke:#181818;stroke-width:1;"/><line style="stroke:#181818;stroke-width:1;" x1="823" x2="833" y1="16" y2="6"/><line style="stroke:#181818;stroke-width:1;" x1="182" x2="823" y1="16" y2="16"/><line style="stroke:#181818;stroke-width:1;" x1="823" x2="823" y1="16" y2="468.22"/><text fill="#000000" font-family="sans-serif" font-size="11" font-weight="bold" lengthAdjust="spacing" textLength="40.8633" x="483.0684" y="29.2104">Server</text></g><!--cluster backend--><g class="cluster" data-entity="backend" data-source-line="16" data-uid="ent0011" id="cluster_backend"><rect fill="#F2DCDB" height="230.61" rx="2.5" ry="2.5" style="stroke:#181818;stroke-width:1;" width="503" x="206" y="131.81"/><rect fill="#F2DCDB" height="10" style="stroke:#181818;stroke-width:1;" width="15" x="689" y="136.81"/><rect fill="#F2DCDB" height="2" style="stroke:#181818;stroke-width:1;" width="4" x="687" y="138.81"/><rect fill="#F2DCDB" height="2" style="stroke:#181818;stroke-width:1;" width="4" x="687" y="142.81"/><text fill="#000000" font-family="sans-serif" font-size="11" font-weight="bold" lengthAdjust="spacing" textLength="52.2983" x="431.3508" y="155.0204">backend</text></g><!--cluster dbServer--><g class="cluster" data-entity="dbServer" data-source-line="32" data-uid="ent0022" id="cluster_dbServer"><polygon fill="none" points="857,277.61,867,267.61,1036,267.61,1036,352.42,1026,362.42,857,362.42,857,277.61" style="stroke:#181818;stroke-width:1;"/><line style="stroke:#181818;stroke-width:1;" x1="1026" x2="1036" y1="277.61" y2="267.61"/><line style="stroke:#181818;stroke-width:1;" x1="857" x2="1026" y1="277.61" y2="277.61"/><line style="stroke:#181818;stroke-width:1;" x1="1026" x2="1026" y1="277.61" y2="362.42"/><text fill="#000000" font-family="sans-serif" font-size="11" font-weight="bold" lengthAdjust="spacing" textLength="103.2324" x="890.8838" y="290.8204">Database Server</text></g><!--entity browser--><g class="entity" data-entity="browser" data-source-line="6" data-uid="ent0003" id="entity_browser"><rect fill="#FFFFFF" height="42.8047" rx="2.5" ry="2.5" style="stroke:#181818;stroke-width:0.5;" width="110.4956" x="31.75" y="42"/><rect fill="#FFFFFF" height="10" style="stroke:#181818;stroke-width:0.5;" width="15" x="122.2456" y="47"/><rect fill="#FFFFFF" height="2" style="stroke:#181818;stroke-width:0.5;" width="4" x="120.2456" y="49"/><rect fill="#FFFFFF" height="2" style="stroke:#181818;stroke-width:0.5;" width="4" x="120.2456" y="53"/><text fill="#000000" font-family="sans-serif" font-size="11" lengthAdjust="spacing" textLength="70.4956" x="46.75" y="72.2104">web browser</text></g><!--entity frontend--><g class="entity" data-entity="frontend" data-source-line="7" data-uid="ent0004" id="entity_frontend"><rect fill="#F2DCDB" height="42.8047" rx="2.5" ry="2.5" style="stroke:#181818;stroke-width:0.5;" width="87.1313" x="43.43" y="162.81"/><rect fill="#F2DCDB" height="10" style="stroke:#181818;stroke-width:0.5;" width="15" x="110.5613" y="167.81"/><rect fill="#F2DCDB" height="2" style="stroke:#181818;stroke-width:0.5;" width="4" x="108.5613" y="169.81"/><rect fill="#F2DCDB" height="2" style="stroke:#181818;stroke-width:0.5;" width="4" x="108.5613" y="173.81"/><text fill="#000000" font-family="sans-serif" font-size="11" lengthAdjust="spacing" textLength="47.1313" x="58.43" y="193.0204">frontend</text></g><!--entity webserver--><g class="entity" data-entity="webserver" data-source-line="12" data-uid="ent0007" id="entity_webserver"><rect fill="#FFFFFF" height="42.8047" rx="2.5" ry="2.5" style="stroke:#181818;stroke-width:0.5;" width="116.4897" x="339.76" y="42"/><rect fill="#FFFFFF" height="10" style="stroke:#181818;stroke-width:0.5;" width="15" x="436.2497" y="47"/><rect fill="#FFFFFF" height="2" style="stroke:#181818;stroke-width:0.5;" width="4" x="434.2497" y="49"/><rect fill="#FFFFFF" height="2" style="stroke:#181818;stroke-width:0.5;" width="4" x="434.2497" y="53"/><text fill="#000000" font-family="sans-serif" font-size="11" lengthAdjust="spacing" textLength="76.4897" x="354.76" y="72.2104">Apache/Nginx</text></g><!--entity laravel--><g class="entity" data-entity="laravel" data-source-line="13" data-uid="ent0008" id="entity_laravel"><rect fill="#FFFFFF" height="42.8047" rx="2.5" ry="2.5" style="stroke:#181818;stroke-width:0.5;" width="77.3936" x="615.3" y="409.42"/><rect fill="#FFFFFF" height="10" style="stroke:#181818;stroke-width:0.5;" width="15" x="672.6936" y="414.42"/><rect fill="#FFFFFF" height="2" style="stroke:#181818;stroke-width:0.5;" width="4" x="670.6936" y="416.42"/><rect fill="#FFFFFF" height="2" style="stroke:#181818;stroke-width:0.5;" width="4" x="670.6936" y="420.42"/><text fill="#000000" font-family="sans-serif" font-size="11" lengthAdjust="spacing" textLength="37.3936" x="630.3" y="439.6304">laravel</text></g><!--entity passport--><g class="entity" data-entity="passport" data-source-line="14" data-uid="ent0009" id="entity_passport"><rect fill="#FFFFFF" height="42.8047" rx="2.5" ry="2.5" style="stroke:#181818;stroke-width:0.5;" width="87.7329" x="728.13" y="409.42"/><rect fill="#FFFFFF" height="10" style="stroke:#181818;stroke-width:0.5;" width="15" x="795.8629" y="414.42"/><rect fill="#FFFFFF" height="2" style="stroke:#181818;stroke-width:0.5;" width="4" x="793.8629" y="416.42"/><rect fill="#FFFFFF" height="2" style="stroke:#181818;stroke-width:0.5;" width="4" x="793.8629" y="420.42"/><text fill="#000000" font-family="sans-serif" font-size="11" lengthAdjust="spacing" textLength="47.7329" x="743.13" y="439.6304">passport</text></g><!--entity packages--><g class="entity" data-entity="packages" data-source-line="15" data-uid="ent0010" id="entity_packages"><rect fill="#FFFFFF" height="42.8047" rx="2.5" ry="2.5" style="stroke:#181818;stroke-width:0.5;" width="92.3628" x="724.82" y="303.61"/><rect fill="#FFFFFF" height="10" style="stroke:#181818;stroke-width:0.5;" width="15" x="797.1828" y="308.61"/><rect fill="#FFFFFF" height="2" style="stroke:#181818;stroke-width:0.5;" width="4" x="795.1828" y="310.61"/><rect fill="#FFFFFF" height="2" style="stroke:#181818;stroke-width:0.5;" width="4" x="795.1828" y="314.61"/><text fill="#000000" font-family="sans-serif" font-size="11" lengthAdjust="spacing" textLength="52.3628" x="739.82" y="333.8204">packages</text></g><!--entity kernel--><g class="entity" data-entity="kernel" data-source-line="17" data-uid="ent0012" id="entity_kernel"><rect fill="#F2DCDB" height="42.8047" rx="2.5" ry="2.5" style="stroke:#181818;stroke-width:0.5;" width="100.5322" x="221.73" y="162.81"/><rect fill="#F2DCDB" height="10" style="stroke:#181818;stroke-width:0.5;" width="15" x="302.2622" y="167.81"/><rect fill="#F2DCDB" height="2" style="stroke:#181818;stroke-width:0.5;" width="4" x="300.2622" y="169.81"/><rect fill="#F2DCDB" height="2" style="stroke:#181818;stroke-width:0.5;" width="4" x="300.2622" y="173.81"/><text fill="#000000" font-family="sans-serif" font-size="11" lengthAdjust="spacing" textLength="60.5322" x="236.73" y="193.0204">http kernel</text></g><!--entity index--><g class="entity" data-entity="index" data-source-line="18" data-uid="ent0013" id="entity_index"><rect fill="#F2DCDB" height="42.8047" rx="2.5" ry="2.5" style="stroke:#181818;stroke-width:0.5;" width="131.5234" x="466.24" y="162.81"/><rect fill="#F2DCDB" height="10" style="stroke:#181818;stroke-width:0.5;" width="15" x="577.7634" y="167.81"/><rect fill="#F2DCDB" height="2" style="stroke:#181818;stroke-width:0.5;" width="4" x="575.7634" y="169.81"/><rect fill="#F2DCDB" height="2" style="stroke:#181818;stroke-width:0.5;" width="4" x="575.7634" y="173.81"/><text fill="#000000" font-family="sans-serif" font-size="11" lengthAdjust="spacing" textLength="91.5234" x="481.24" y="193.0204">public/index.php</text></g><!--entity config--><g class="entity" data-entity="config" data-source-line="19" data-uid="ent0014" id="entity_config"><rect fill="#F2DCDB" height="42.8047" rx="2.5" ry="2.5" style="stroke:#181818;stroke-width:0.5;" width="73.6606" x="357.17" y="162.81"/><rect fill="#F2DCDB" height="10" style="stroke:#181818;stroke-width:0.5;" width="15" x="410.8306" y="167.81"/><rect fill="#F2DCDB" height="2" style="stroke:#181818;stroke-width:0.5;" width="4" x="408.8306" y="169.81"/><rect fill="#F2DCDB" height="2" style="stroke:#181818;stroke-width:0.5;" width="4" x="408.8306" y="173.81"/><text fill="#000000" font-family="sans-serif" font-size="11" lengthAdjust="spacing" textLength="33.6606" x="372.17" y="193.0204">config</text></g><!--entity app--><g class="entity" data-entity="app" data-source-line="20" data-uid="ent0015" id="entity_app"><rect fill="#F2DCDB" height="42.8047" rx="2.5" ry="2.5" style="stroke:#181818;stroke-width:0.5;" width="60.7056" x="632.65" y="162.81"/><rect fill="#F2DCDB" height="10" style="stroke:#181818;stroke-width:0.5;" width="15" x="673.3556" y="167.81"/><rect fill="#F2DCDB" height="2" style="stroke:#181818;stroke-width:0.5;" width="4" x="671.3556" y="169.81"/><rect fill="#F2DCDB" height="2" style="stroke:#181818;stroke-width:0.5;" width="4" x="671.3556" y="173.81"/><text fill="#000000" font-family="sans-serif" font-size="11" lengthAdjust="spacing" textLength="20.7056" x="647.65" y="193.0204">app</text></g><!--entity resources--><g class="entity" data-entity="resources" data-source-line="21" data-uid="ent0016" id="entity_resources"><rect fill="#F2DCDB" height="42.8047" rx="2.5" ry="2.5" style="stroke:#181818;stroke-width:0.5;" width="93.7915" x="225.1" y="303.61"/><rect fill="#F2DCDB" height="10" style="stroke:#181818;stroke-width:0.5;" width="15" x="298.8915" y="308.61"/><rect fill="#F2DCDB" height="2" style="stroke:#181818;stroke-width:0.5;" width="4" x="296.8915" y="310.61"/><rect fill="#F2DCDB" height="2" style="stroke:#181818;stroke-width:0.5;" width="4" x="296.8915" y="314.61"/><text fill="#000000" font-family="sans-serif" font-size="11" lengthAdjust="spacing" textLength="53.7915" x="240.1" y="333.8204">resources</text></g><!--entity public--><g class="entity" data-entity="public" data-source-line="22" data-uid="ent0017" id="entity_public"><rect fill="#F2DCDB" height="42.8047" rx="2.5" ry="2.5" style="stroke:#181818;stroke-width:0.5;" width="73.0967" x="353.45" y="303.61"/><rect fill="#F2DCDB" height="10" style="stroke:#181818;stroke-width:0.5;" width="15" x="406.5467" y="308.61"/><rect fill="#F2DCDB" height="2" style="stroke:#181818;stroke-width:0.5;" width="4" x="404.5467" y="310.61"/><rect fill="#F2DCDB" height="2" style="stroke:#181818;stroke-width:0.5;" width="4" x="404.5467" y="314.61"/><text fill="#000000" font-family="sans-serif" font-size="11" lengthAdjust="spacing" textLength="33.0967" x="368.45" y="333.8204">public</text></g><!--entity postgres--><g class="entity" data-entity="postgres" data-source-line="33" data-uid="ent0023" id="entity_postgres"><rect fill="#FFFFFF" height="42.8047" rx="2.5" ry="2.5" style="stroke:#181818;stroke-width:0.5;" width="87.4106" x="873.29" y="303.61"/><rect fill="#FFFFFF" height="10" style="stroke:#181818;stroke-width:0.5;" width="15" x="940.7006" y="308.61"/><rect fill="#FFFFFF" height="2" style="stroke:#181818;stroke-width:0.5;" width="4" x="938.7006" y="310.61"/><rect fill="#FFFFFF" height="2" style="stroke:#181818;stroke-width:0.5;" width="4" x="938.7006" y="314.61"/><text fill="#000000" font-family="sans-serif" font-size="11" lengthAdjust="spacing" textLength="47.4106" x="888.29" y="333.8204">Postgres</text></g><!--link browser to frontend--><g class="link" data-entity-1="browser" data-entity-2="frontend" data-source-line="8" data-uid="lnk5" id="link_browser_frontend"><path d="M87,97.1 C87,118.77 87,134.62 87,156.35" fill="none" id="browser-frontend" style="stroke:#181818;stroke-width:1;"/><polygon fill="#181818" points="87,85.1,83,91.1,87,97.1,91,91.1,87,85.1" style="stroke:#181818;stroke-width:1;"/><polygon fill="#181818" points="87,162.35,91,153.35,87,157.35,83,153.35,87,162.35" style="stroke:#181818;stroke-width:1;"/></g><!--link webserver to index--><g class="link" data-entity-1="webserver" data-entity-2="index" data-source-line="25" data-uid="lnk18" id="link_webserver_index"><path d="M421.34,85.1 C445.79,106.77 479.4696,136.6405 503.9896,158.3705" fill="none" id="webserver-to-index" style="stroke:#181818;stroke-width:1;"/><polygon fill="#181818" points="508.48,162.35,504.3974,153.3872,504.738,159.0338,499.0914,159.3744,508.48,162.35" style="stroke:#181818;stroke-width:1;"/></g><!--link packages to laravel--><g class="link" data-entity-1="packages" data-entity-2="laravel" data-source-line="27" data-uid="lnk19" id="link_packages_laravel"><path d="M738.6238,354.7342 C718.2238,372.8342 702.2381,387.0179 681.8381,405.1179" fill="none" id="packages-laravel" style="stroke:#181818;stroke-width:1;"/><polygon fill="#181818" points="747.6,346.77,740.4572,347.76,738.6238,354.7342,745.7666,353.7441,747.6,346.77" style="stroke:#181818;stroke-width:1;"/><polygon fill="#181818" points="677.35,409.1,686.7369,406.1189,681.0901,405.7816,681.4274,400.1348,677.35,409.1" style="stroke:#181818;stroke-width:1;"/></g><!--link packages to passport--><g class="link" data-entity-1="packages" data-entity-2="passport" data-source-line="28" data-uid="lnk20" id="link_packages_passport"><path d="M771.3128,358.5195 C771.4828,376.5995 771.5606,384.8203 771.7406,403.0003" fill="none" id="packages-passport" style="stroke:#181818;stroke-width:1;"/><polygon fill="#181818" points="771.2,346.52,767.2566,352.5573,771.3128,358.5195,775.2562,352.4821,771.2,346.52" style="stroke:#181818;stroke-width:1;"/><polygon fill="#181818" points="771.8,409,775.7107,399.9608,771.7505,404.0002,767.7111,400.04,771.8,409" style="stroke:#181818;stroke-width:1;"/></g><!--link app to packages--><g class="link" data-entity-1="app" data-entity-2="packages" data-source-line="29" data-uid="lnk21" id="link_app_packages"><path d="M679.17,205.99 C699.65,232.31 731.0257,272.6344 751.3857,298.8044" fill="none" id="app-to-packages" style="stroke:#181818;stroke-width:1;"/><polygon fill="#181818" points="755.07,303.54,752.7007,293.9804,751.9998,299.5936,746.3865,298.8927,755.07,303.54" style="stroke:#181818;stroke-width:1;"/></g><!--link browser to webserver--><g class="link" data-entity-1="browser" data-entity-2="webserver" data-source-line="36" data-uid="lnk24" id="link_browser_webserver"><path d="M148.6,63.4 C204.07,63.4 276.96,63.4 333.45,63.4" fill="none" id="browser-webserver" style="stroke:#FF4500;stroke-width:1;stroke-dasharray:7,7;"/><polygon fill="#FF4500" points="142.6,63.4,151.6,67.4,147.6,63.4,151.6,59.4,142.6,63.4" style="stroke:#FF4500;stroke-width:1;"/><polygon fill="#FF4500" points="339.45,63.4,330.45,59.4,334.45,63.4,330.45,67.4,339.45,63.4" style="stroke:#FF4500;stroke-width:1;"/><text fill="#FF4500" font-family="sans-serif" font-size="11" lengthAdjust="spacing" textLength="28.3433" x="227" y="57.6104">HTTP</text></g><!--link app to postgres--><g class="link" data-entity-1="app" data-entity-2="postgres" data-source-line="37" data-uid="lnk25" id="link_app_postgres"><path d="M699.5831,192.3143 C733.2631,199.6343 782.19,213.02 824,237.61 C853.82,255.15 878.0535,279.1947 895.4135,298.6347" fill="none" id="app-postgres" style="stroke:#FF4500;stroke-width:1;stroke-dasharray:7,7;"/><polygon fill="#FF4500" points="693.72,191.04,701.6652,196.8602,698.6059,192.1019,703.3642,189.0427,693.72,191.04" style="stroke:#FF4500;stroke-width:1;"/><polygon fill="#FF4500" points="899.41,303.11,896.3988,293.7327,896.0796,299.3806,890.4318,299.0614,899.41,303.11" style="stroke:#FF4500;stroke-width:1;"/><text fill="#FF4500" font-family="sans-serif" font-size="11" lengthAdjust="spacing" textLength="43.8442" x="845" y="248.8204">Intranet</text></g><!--SRC=[VLDDJyCm3BttLrZR0GbfdSOHbKfZ2C459hORuf0cRXSjIw8a-n28_qwQfMNjjFNGEdxFzdFisZMNcXYoWPdQQ2LHkaT2rvLHMybcIYW3-nLtcDYMoB0aM-6MU71JmIkvyJ50_GlDEUjPIRVWtmYJIP98nH06Cy4zUG34WgRmau1_Q5CS1diie31gRz44JhHxjDBun2WP3CixHbaHu4Y5sz4eRnd9RrDuWMONazfWdXUVQa9NE7whk3m4ebTpvFQOmZUvGz7pQcAjLiQTkUcQL6XxxiAxJrg8QdgALivfMAEHA8AWezbfknUXjuNWTCmbmqEgLpg4XTELAAfaoQih1ABr5TIWLLj3qLxX77Lr27uqzQUzP1WnFxcWDG0tG8pZbaZ80X9lB63DfVffrz3fG7fGPofr7z4RXzBknnDnf20MuMHHMB6ui2fpPLtb-pukSZpKoPejpDBqS_XkYApm0zcNITFylzDxo4eLxjt_OWyjAtzPBkVPk8Rof9QQTNBu36sfInbUfVCskfZb3m00]--></g></svg>