<svg xmlns="http://www.w3.org/2000/svg" xmlns:xlink="http://www.w3.org/1999/xlink" contentStyleType="text/css" height="874px" preserveAspectRatio="none" style="width:1091px;height:874px;background:#FFFFFF;" version="1.1" viewBox="0 0 1091 874" width="1091px" zoomAndPan="magnify"><defs/><g><!--cluster Analysis--><g id="cluster_Analysis"><polygon fill="none" points="669,6,726.5732,6,733.5732,24.8047,799,24.8047,799,453.42,669,453.42,669,6" style="stroke:#000000;stroke-width:1.5;"/><line style="stroke:#000000;stroke-width:1.5;" x1="669" x2="733.5732" y1="24.8047" y2="24.8047"/><text fill="#000000" font-family="sans-serif" font-size="11" font-weight="bold" lengthAdjust="spacing" textLength="51.5732" x="673" y="18.2104">Analysis</text></g><!--cluster Design--><g id="cluster_Design"><polygon fill="none" points="16,154.61,64.6143,154.61,71.6143,173.4147,645,173.4147,645,867.46,16,867.46,16,154.61" style="stroke:#000000;stroke-width:1.5;"/><line style="stroke:#000000;stroke-width:1.5;" x1="16" x2="71.6143" y1="173.4147" y2="173.4147"/><text fill="#000000" font-family="sans-serif" font-size="11" font-weight="bold" lengthAdjust="spacing" textLength="42.6143" x="20" y="166.8204">Design</text></g><!--cluster backend--><g id="cluster_backend"><polygon fill="none" points="362,342.22,420.2983,342.22,427.2983,361.0247,621,361.0247,621,843.46,362,843.46,362,342.22" style="stroke:#000000;stroke-width:1.5;"/><line style="stroke:#000000;stroke-width:1.5;" x1="362" x2="427.2983" y1="361.0247" y2="361.0247"/><text fill="#000000" font-family="sans-serif" font-size="11" font-weight="bold" lengthAdjust="spacing" textLength="52.2983" x="366" y="354.4304">backend</text><text fill="#000000" font-family="sans-serif" font-size="11" font-style="italic" lengthAdjust="spacing" textLength="95.165" x="447.9175" y="373.2351">&#171;express:4.19.2&#187;</text></g><!--cluster frontend--><g id="cluster_frontend"><polygon fill="none" points="40,193.61,100.0225,193.61,107.0225,212.4147,338,212.4147,338,459.83,40,459.83,40,193.61" style="stroke:#000000;stroke-width:1.5;"/><line style="stroke:#000000;stroke-width:1.5;" x1="40" x2="107.0225" y1="212.4147" y2="212.4147"/><text fill="#000000" font-family="sans-serif" font-size="11" font-weight="bold" lengthAdjust="spacing" textLength="54.0225" x="44" y="205.8204">frontend</text></g><!--entity PublicationDetailViewAnalysis--><g id="elem_PublicationDetailViewAnalysis"><path d="M694.4995,41 L694.4995,65 M694.4995,53 L711.4995,53 " fill="none" style="stroke:#181818;stroke-width:0.5;"/><ellipse cx="723.4995" cy="53" fill="#F1F1F1" rx="12" ry="12" style="stroke:#181818;stroke-width:0.5;"/><text fill="#000000" font-family="sans-serif" font-size="11" lengthAdjust="spacing" textLength="60.5591" x="684.72" y="79.2104">Publication</text><text fill="#000000" font-family="sans-serif" font-size="11" lengthAdjust="spacing" textLength="58.749" x="685.625" y="92.0151">DetailView</text></g><!--entity PublicationAnalysis--><g id="elem_PublicationAnalysis"><ellipse cx="714.9995" cy="408.62" fill="#F1F1F1" rx="12" ry="12" style="stroke:#181818;stroke-width:0.5;"/><line style="stroke:#181818;stroke-width:0.5;" x1="702.9995" x2="726.9995" y1="422.62" y2="422.62"/><text fill="#000000" font-family="sans-serif" font-size="11" lengthAdjust="spacing" textLength="60.5591" x="684.72" y="434.8304">Publication</text></g><!--entity CreatePublicationControllerAnalysis--><g id="elem_CreatePublicationControllerAnalysis"><ellipse cx="733.9955" cy="240.61" fill="#F1F1F1" rx="12" ry="12" style="stroke:#181818;stroke-width:0.5;"/><polygon fill="#181818" points="729.9955,228.61,735.9955,223.61,733.9955,228.61,735.9955,233.61,729.9955,228.61" style="stroke:#181818;stroke-width:1.0;"/><text fill="#000000" font-family="sans-serif" font-size="11" lengthAdjust="spacing" textLength="97.3511" x="685.32" y="266.8204">CreatePublication</text><text fill="#000000" font-family="sans-serif" font-size="11" lengthAdjust="spacing" textLength="54.3501" x="706.8205" y="279.6251">Controller</text></g><!--entity PublicationDetailView--><g id="elem_PublicationDetailView"><path d="M531.4995,655.0447 L531.4995,679.0447 M531.4995,667.0447 L548.4995,667.0447 " fill="none" style="stroke:#181818;stroke-width:0.5;"/><ellipse cx="560.4995" cy="667.0447" fill="#F1F1F1" rx="12" ry="12" style="stroke:#181818;stroke-width:0.5;"/><text fill="#000000" font-family="sans-serif" font-size="11" lengthAdjust="spacing" textLength="60.5591" x="521.72" y="693.2551">Publication</text><text fill="#000000" font-family="sans-serif" font-size="11" font-style="italic" lengthAdjust="spacing" textLength="36.6685" x="533.6653" y="648.4504">&#171;PUG&#187;</text></g><!--entity mainLayoutProfileView--><g id="elem_mainLayoutProfileView"><path d="M531.4978,786.6547 L531.4978,810.6547 M531.4978,798.6547 L548.4978,798.6547 " fill="none" style="stroke:#181818;stroke-width:0.5;"/><ellipse cx="560.4978" cy="798.6547" fill="#F1F1F1" rx="12" ry="12" style="stroke:#181818;stroke-width:0.5;"/><text fill="#000000" font-family="sans-serif" font-size="11" lengthAdjust="spacing" textLength="99.5156" x="502.24" y="824.8651">mainLayoutProfile</text><text fill="#000000" font-family="sans-serif" font-size="11" font-style="italic" lengthAdjust="spacing" textLength="36.6685" x="533.6636" y="780.0604">&#171;PUG&#187;</text></g><!--entity CreatePublicationController--><g id="elem_CreatePublicationController"><ellipse cx="435.0046" cy="535.6347" fill="#F1F1F1" rx="12" ry="12" style="stroke:#181818;stroke-width:0.5;"/><polygon fill="#181818" points="431.0046,523.6347,437.0046,518.6347,435.0046,523.6347,437.0046,528.6347,431.0046,523.6347" style="stroke:#181818;stroke-width:1.0;"/><text fill="#000000" font-family="sans-serif" font-size="11" lengthAdjust="spacing" textLength="114.9092" x="377.55" y="561.8451">PublicationController</text><text fill="#000000" font-family="sans-serif" font-size="11" lengthAdjust="spacing" textLength="97.3511" x="386.3291" y="574.6498">CreatePublication</text><text fill="#000000" font-family="sans-serif" font-size="11" font-style="italic" lengthAdjust="spacing" textLength="68.5996" x="400.7048" y="517.0404">&#171;JavaScript&#187;</text></g><!--entity Router--><g id="elem_Router"><ellipse cx="457.9998" cy="415.0247" fill="#F1F1F1" rx="12" ry="12" style="stroke:#181818;stroke-width:0.5;"/><polygon fill="#181818" points="453.9998,403.0247,459.9998,398.0247,457.9998,403.0247,459.9998,408.0247,453.9998,403.0247" style="stroke:#181818;stroke-width:1.0;"/><text fill="#000000" font-family="sans-serif" font-size="11" lengthAdjust="spacing" textLength="36.9478" x="439.5259" y="441.2351">Router</text><text fill="#000000" font-family="sans-serif" font-size="11" font-style="italic" lengthAdjust="spacing" textLength="68.5996" x="423.7" y="396.4304">&#171;JavaScript&#187;</text></g><!--entity auth--><g id="elem_auth"><ellipse cx="566.0037" cy="415.0247" fill="#F1F1F1" rx="12" ry="12" style="stroke:#181818;stroke-width:0.5;"/><polygon fill="#181818" points="562.0037,403.0247,568.0037,398.0247,566.0037,403.0247,568.0037,408.0247,562.0037,403.0247" style="stroke:#181818;stroke-width:1.0;"/><text fill="#000000" font-family="sans-serif" font-size="11" lengthAdjust="spacing" textLength="24.9971" x="553.5051" y="441.2351">auth</text><text fill="#000000" font-family="sans-serif" font-size="11" font-style="italic" lengthAdjust="spacing" textLength="78.0474" x="526.98" y="396.4304">&#171;middleware&#187;</text></g><!--entity uploadSingle--><g id="elem_uploadSingle"><ellipse cx="566.0037" cy="542.0347" fill="#F1F1F1" rx="12" ry="12" style="stroke:#181818;stroke-width:0.5;"/><polygon fill="#181818" points="562.0037,530.0347,568.0037,525.0347,566.0037,530.0347,568.0037,535.0347,562.0037,530.0347" style="stroke:#181818;stroke-width:1.0;"/><text fill="#000000" font-family="sans-serif" font-size="11" lengthAdjust="spacing" textLength="73.5249" x="529.2412" y="568.2451">upload.single</text><text fill="#000000" font-family="sans-serif" font-size="11" font-style="italic" lengthAdjust="spacing" textLength="78.0474" x="526.98" y="523.4404">&#171;middleware&#187;</text></g><!--entity Publication--><g id="elem_Publication"><ellipse cx="441.9998" cy="667.0447" fill="#F1F1F1" rx="12" ry="12" style="stroke:#181818;stroke-width:0.5;"/><line style="stroke:#181818;stroke-width:0.5;" x1="429.9998" x2="453.9998" y1="681.0447" y2="681.0447"/><text fill="#000000" font-family="sans-serif" font-size="11" lengthAdjust="spacing" textLength="60.5591" x="411.7203" y="693.2551">Publication</text><text fill="#000000" font-family="sans-serif" font-size="11" font-style="italic" lengthAdjust="spacing" textLength="68.5996" x="407.7" y="648.4504">&#171;JavaScript&#187;</text></g><!--entity PublicationHtml--><g id="elem_PublicationHtml"><path d="M227.4995,241.4147 L227.4995,265.4147 M227.4995,253.4147 L244.4995,253.4147 " fill="none" style="stroke:#181818;stroke-width:0.5;"/><ellipse cx="256.4995" cy="253.4147" fill="#F1F1F1" rx="12" ry="12" style="stroke:#181818;stroke-width:0.5;"/><text fill="#000000" font-family="sans-serif" font-size="11" lengthAdjust="spacing" textLength="60.5591" x="217.72" y="279.6251">Publication</text><text fill="#000000" font-family="sans-serif" font-size="11" font-style="italic" lengthAdjust="spacing" textLength="44.0698" x="225.9646" y="234.8204">&#171;HTML&#187;</text></g><!--entity outputCss--><g id="elem_outputCss"><path d="M60.5,403.0247 L60.5,427.0247 M60.5,415.0247 L77.5,415.0247 " fill="none" style="stroke:#181818;stroke-width:0.5;"/><ellipse cx="89.5" cy="415.0247" fill="#F1F1F1" rx="12" ry="12" style="stroke:#181818;stroke-width:0.5;"/><text fill="#000000" font-family="sans-serif" font-size="11" lengthAdjust="spacing" textLength="36.2817" x="62.8591" y="441.2351">output</text><text fill="#000000" font-family="sans-serif" font-size="11" font-style="italic" lengthAdjust="spacing" textLength="35.1055" x="63.4473" y="396.4304">&#171;CSS&#187;</text></g><!--entity fontCss--><g id="elem_fontCss"><path d="M159.5026,403.0247 L159.5026,427.0247 M159.5026,415.0247 L176.5026,415.0247 " fill="none" style="stroke:#181818;stroke-width:0.5;"/><ellipse cx="188.5026" cy="415.0247" fill="#F1F1F1" rx="12" ry="12" style="stroke:#181818;stroke-width:0.5;"/><text fill="#000000" font-family="sans-serif" font-size="11" lengthAdjust="spacing" textLength="78.3052" x="140.85" y="441.2351">font-awesome</text><text fill="#000000" font-family="sans-serif" font-size="11" font-style="italic" lengthAdjust="spacing" textLength="35.1055" x="162.4499" y="396.4304">&#171;CSS&#187;</text></g><!--entity script--><g id="elem_script"><ellipse cx="287.9998" cy="415.0247" fill="#F1F1F1" rx="12" ry="12" style="stroke:#181818;stroke-width:0.5;"/><polygon fill="#181818" points="283.9998,403.0247,289.9998,398.0247,287.9998,403.0247,289.9998,408.0247,283.9998,403.0247" style="stroke:#181818;stroke-width:1.0;"/><text fill="#000000" font-family="sans-serif" font-size="11" lengthAdjust="spacing" textLength="30.6528" x="272.6734" y="441.2351">script</text><text fill="#000000" font-family="sans-serif" font-size="11" font-style="italic" lengthAdjust="spacing" textLength="68.5996" x="253.7" y="396.4304">&#171;JavaScript&#187;</text></g><!--link PublicationDetailViewAnalysis to CreatePublicationControllerAnalysis--><g id="link_PublicationDetailViewAnalysis_CreatePublicationControllerAnalysis"><path d="M717.89,94.99 C721.47,129.98 726.929,183.3212 730.509,218.2912 " fill="none" id="PublicationDetailViewAnalysis-to-CreatePublicationControllerAnalysis" style="stroke:#181818;stroke-width:1.0;"/><polygon fill="#181818" points="731.12,224.26,734.1826,214.8994,730.6108,219.286,726.2242,215.7142,731.12,224.26" style="stroke:#181818;stroke-width:1.0;"/></g><!--link CreatePublicationControllerAnalysis to PublicationAnalysis--><g id="link_CreatePublicationControllerAnalysis_PublicationAnalysis"><path d="M732.63,282.43 C731.83,295.72 730.65,311.82 729,326.22 C726.41,348.92 723.1763,368.8119 720.0363,386.5419 " fill="none" id="CreatePublicationControllerAnalysis-to-PublicationAnalysis" style="stroke:#181818;stroke-width:1.0;"/><polygon fill="#181818" points="718.99,392.45,724.4982,384.2855,719.8619,387.5266,716.6208,382.8904,718.99,392.45" style="stroke:#181818;stroke-width:1.0;"/></g><!--link PublicationHtml to Router--><g id="link_PublicationHtml_Router"><path d="M278.54,277.62 C316.99,306.85 378.1027,353.3 418.4527,383.96 " fill="none" id="PublicationHtml-to-Router" style="stroke:#181818;stroke-width:1.0;stroke-dasharray:7.0,7.0;"/><polygon fill="#181818" points="423.23,387.59,418.4841,378.96,419.2489,384.565,413.644,385.3298,423.23,387.59" style="stroke:#181818;stroke-width:1.0;"/></g><!--link PublicationHtml to outputCss--><g id="link_PublicationHtml_outputCss"><path d="M217.33,268.29 C189.88,281.93 149.93,304.94 123,334.22 C109.22,349.2 100.9978,364.0456 93.8878,380.4356 " fill="none" id="PublicationHtml-to-outputCss" style="stroke:#181818;stroke-width:1.0;"/><polygon fill="#181818" points="91.5,385.94,98.7513,379.2753,93.4898,381.353,91.4121,376.0915,91.5,385.94" style="stroke:#181818;stroke-width:1.0;"/></g><!--link PublicationHtml to fontCss--><g id="link_PublicationHtml_fontCss"><path d="M236,282.58 C223.61,311.67 206.7318,351.2701 194.3418,380.3501 " fill="none" id="PublicationHtml-to-fontCss" style="stroke:#181818;stroke-width:1.0;"/><polygon fill="#181818" points="191.99,385.87,199.1977,379.1581,193.9499,381.2701,191.8378,376.0223,191.99,385.87" style="stroke:#181818;stroke-width:1.0;"/></g><!--link PublicationHtml to script--><g id="link_PublicationHtml_script"><path d="M255.06,282.58 C262.35,311.67 272.2029,350.9696 279.4829,380.0496 " fill="none" id="PublicationHtml-to-script" style="stroke:#181818;stroke-width:1.0;"/><polygon fill="#181818" points="280.94,385.87,282.6346,376.168,279.7258,381.0197,274.8741,378.1108,280.94,385.87" style="stroke:#181818;stroke-width:1.0;"/></g><!--link Router to auth--><g id="link_Router_auth"><path d="M492.59,415.02 C503.97,415.02 509.34,415.02 520.72,415.02 " fill="none" id="Router-to-auth" style="stroke:#181818;stroke-width:1.0;"/><polygon fill="#181818" points="526.72,415.02,517.72,411.02,521.72,415.02,517.72,419.02,526.72,415.02" style="stroke:#181818;stroke-width:1.0;"/></g><!--link Router to uploadSingle--><g id="link_Router_uploadSingle"><path d="M482.24,444.08 C500.02,464.67 520.1578,487.9695 537.9178,508.5295 " fill="none" id="Router-to-uploadSingle" style="stroke:#181818;stroke-width:1.0;"/><polygon fill="#181818" points="541.84,513.07,538.9838,503.6444,538.5715,509.2862,532.9297,508.874,541.84,513.07" style="stroke:#181818;stroke-width:1.0;"/></g><!--link Router to CreatePublicationController--><g id="link_Router_CreatePublicationController"><path d="M452.84,444.08 C449.45,462.51 446.0752,480.849 442.4652,500.479 " fill="none" id="Router-to-CreatePublicationController" style="stroke:#181818;stroke-width:1.0;"/><polygon fill="#181818" points="441.38,506.38,446.9419,498.2519,442.2843,501.4625,439.0738,496.805,441.38,506.38" style="stroke:#181818;stroke-width:1.0;"/></g><!--link CreatePublicationController to PublicationDetailView--><g id="link_CreatePublicationController_PublicationDetailView"><path d="M467.9,577.63 C486.02,596.67 504.0755,615.6519 521.1155,633.5719 " fill="none" id="CreatePublicationController-to-PublicationDetailView" style="stroke:#181818;stroke-width:1.0;"/><polygon fill="#181818" points="525.25,637.92,521.9469,628.6416,521.8046,634.2966,516.1495,634.1543,525.25,637.92" style="stroke:#181818;stroke-width:1.0;"/></g><!--link PublicationDetailView to mainLayoutProfileView--><g id="link_PublicationDetailView_mainLayoutProfileView"><path d="M552,696.17 C552,717.91 552,741.86 552,763.59 " fill="none" id="PublicationDetailView-to-mainLayoutProfileView" style="stroke:#181818;stroke-width:1.0;"/><polygon fill="#181818" points="552,769.59,556,760.59,552,764.59,548,760.59,552,769.59" style="stroke:#181818;stroke-width:1.0;"/><text fill="#000000" font-family="sans-serif" font-size="11" lengthAdjust="spacing" textLength="44.043" x="553" y="737.0604">extends</text></g><!--link CreatePublicationController to Publication--><g id="link_CreatePublicationController_Publication"><path d="M436.97,577.63 C438.05,596.67 439.039,614.0097 440.059,631.9297 " fill="none" id="CreatePublicationController-to-Publication" style="stroke:#181818;stroke-width:1.0;"/><polygon fill="#181818" points="440.4,637.92,443.8821,628.7072,440.1159,632.9281,435.895,629.1619,440.4,637.92" style="stroke:#181818;stroke-width:1.0;"/></g><!--link PublicationDetailViewAnalysis to PublicationHtml--><g id="link_PublicationDetailViewAnalysis_PublicationHtml"><path d="M684.24,66.54 C595.03,66.43 338.76,70.88 279,124.61 C251.24,149.57 246.2798,188.78 246.3298,218.19 " fill="none" id="PublicationDetailViewAnalysis-to-PublicationHtml" style="stroke:#008000;stroke-width:1.0;stroke-dasharray:7.0,7.0;"/><polygon fill="#008000" points="246.34,224.19,250.3247,215.1832,246.3315,219.19,242.3247,215.1968,246.34,224.19" style="stroke:#008000;stroke-width:1.0;"/><text fill="#008000" font-family="sans-serif" font-size="11" lengthAdjust="spacing" textLength="41.8516" x="280" y="135.8204">&#171;trace&#187;</text></g><!--link PublicationDetailViewAnalysis to outputCss--><g id="link_PublicationDetailViewAnalysis_outputCss"><path d="M684.39,68.14 C625.19,72.04 492.86,87.28 402,146.61 C337.95,188.44 359.15,239.04 296,282.22 C294.96,282.93 123.97,333.42 123,334.22 C106.81,347.56 98.1999,363.1946 91.6299,380.4046 " fill="none" id="PublicationDetailViewAnalysis-to-outputCss" style="stroke:#008000;stroke-width:1.0;stroke-dasharray:7.0,7.0;"/><polygon fill="#008000" points="89.49,386.01,96.4368,379.0285,91.2732,381.3388,88.9629,376.1753,89.49,386.01" style="stroke:#008000;stroke-width:1.0;"/><text fill="#008000" font-family="sans-serif" font-size="11" lengthAdjust="spacing" textLength="41.8516" x="403" y="257.6204">&#171;trace&#187;</text></g><!--link PublicationDetailViewAnalysis to fontCss--><g id="link_PublicationDetailViewAnalysis_fontCss"><path d="M684.25,93.99 C614.35,155.16 444.12,300.29 374,326.22 C345.19,336.87 262.83,319.26 236,334.22 C215.6,345.59 203.6339,362.5389 194.4339,380.6789 " fill="none" id="PublicationDetailViewAnalysis-to-fontCss" style="stroke:#008000;stroke-width:1.0;stroke-dasharray:7.0,7.0;"/><polygon fill="#008000" points="191.72,386.03,199.3583,379.8126,193.9816,381.5707,192.2235,376.194,191.72,386.03" style="stroke:#008000;stroke-width:1.0;"/><text fill="#008000" font-family="sans-serif" font-size="11" lengthAdjust="spacing" textLength="41.8516" x="621" y="257.6204">&#171;trace&#187;</text></g><!--link PublicationDetailViewAnalysis to PublicationDetailView--><g id="link_PublicationDetailViewAnalysis_PublicationDetailView"><path d="M745.67,69.71 C826.82,79.26 1041,117.27 1041,252.41 C1041,252.41 1041,252.41 1041,543.03 C1041,638.02 695.6345,660.1024 588.5845,664.7024 " fill="none" id="PublicationDetailViewAnalysis-to-PublicationDetailView" style="stroke:#008000;stroke-width:1.0;stroke-dasharray:7.0,7.0;"/><polygon fill="#008000" points="582.59,664.96,591.7534,668.5699,587.5854,664.7453,591.41,660.5773,582.59,664.96" style="stroke:#008000;stroke-width:1.0;"/><text fill="#008000" font-family="sans-serif" font-size="11" lengthAdjust="spacing" textLength="41.8516" x="1042" y="419.2304">&#171;trace&#187;</text></g><!--link CreatePublicationControllerAnalysis to Router--><g id="link_CreatePublicationControllerAnalysis_Router"><path d="M685.04,278.84 C651.47,294.62 605.49,314.35 563,326.22 C539.63,332.74 529.37,321.03 509,334.22 C490.23,346.37 479.5463,362.7024 471.2763,380.4324 " fill="none" id="CreatePublicationControllerAnalysis-to-Router" style="stroke:#FF7F50;stroke-width:1.0;stroke-dasharray:7.0,7.0;"/><polygon fill="#FF7F50" points="468.74,385.87,476.1695,379.4045,470.8536,381.3387,468.9194,376.0228,468.74,385.87" style="stroke:#FF7F50;stroke-width:1.0;"/><text fill="#FF7F50" font-family="sans-serif" font-size="11" lengthAdjust="spacing" textLength="41.8516" x="602" y="323.4304">&#171;trace&#187;</text></g><!--link CreatePublicationControllerAnalysis to CreatePublicationController--><g id="link_CreatePublicationControllerAnalysis_CreatePublicationController"><path d="M749.85,282.44 C772.84,327.26 808.05,415.33 763,467.83 C725.81,511.16 563.68,490.35 509,506.83 C503.58,508.46 503.639,508.2374 498.159,510.3774 " fill="none" id="CreatePublicationControllerAnalysis-to-CreatePublicationController" style="stroke:#FF7F50;stroke-width:1.0;stroke-dasharray:7.0,7.0;"/><polygon fill="#FF7F50" points="492.57,512.56,502.4085,513.0121,497.2275,510.7412,499.4984,505.5602,492.57,512.56" style="stroke:#FF7F50;stroke-width:1.0;"/><text fill="#FF7F50" font-family="sans-serif" font-size="11" lengthAdjust="spacing" textLength="41.8516" x="785" y="419.2304">&#171;trace&#187;</text></g><!--link CreatePublicationControllerAnalysis to auth--><g id="link_CreatePublicationControllerAnalysis_auth"><path d="M704.35,282.58 C673.74,311.67 630.59,352.6575 599.98,381.7375 " fill="none" id="CreatePublicationControllerAnalysis-to-auth" style="stroke:#FF7F50;stroke-width:1.0;stroke-dasharray:7.0,7.0;"/><polygon fill="#FF7F50" points="595.63,385.87,604.91,382.5712,599.255,382.4262,599.3999,376.7712,595.63,385.87" style="stroke:#FF7F50;stroke-width:1.0;"/><text fill="#FF7F50" font-family="sans-serif" font-size="11" lengthAdjust="spacing" textLength="41.8516" x="670" y="323.4304">&#171;trace&#187;</text></g><!--link CreatePublicationControllerAnalysis to uploadSingle--><g id="link_CreatePublicationControllerAnalysis_uploadSingle"><path d="M782.92,268.31 C813.88,280.13 850.83,300.67 866,334.22 C890.46,388.33 900.15,419.24 866,467.83 C836.14,510.32 685.6115,529.8361 611.2615,537.1061 " fill="none" id="CreatePublicationControllerAnalysis-to-uploadSingle" style="stroke:#FF7F50;stroke-width:1.0;stroke-dasharray:7.0,7.0;"/><polygon fill="#FF7F50" points="605.29,537.69,614.6365,540.7952,610.2663,537.2034,613.858,532.8331,605.29,537.69" style="stroke:#FF7F50;stroke-width:1.0;"/><text fill="#FF7F50" font-family="sans-serif" font-size="11" lengthAdjust="spacing" textLength="41.8516" x="889" y="419.2304">&#171;trace&#187;</text></g><!--link CreatePublicationControllerAnalysis to script--><g id="link_CreatePublicationControllerAnalysis_script"><path d="M684.84,264.87 C639.41,275.08 570.33,292.01 512,312.22 C497.33,317.3 495.08,322.53 480,326.22 C454.47,332.47 385.72,322.89 362,334.22 C338.47,345.45 322.3117,362.895 309.1817,381.085 " fill="none" id="CreatePublicationControllerAnalysis-to-script" style="stroke:#FF7F50;stroke-width:1.0;stroke-dasharray:7.0,7.0;"/><polygon fill="#FF7F50" points="305.67,385.95,314.1808,380.9936,308.5964,381.8958,307.6942,376.3114,305.67,385.95" style="stroke:#FF7F50;stroke-width:1.0;"/><text fill="#FF7F50" font-family="sans-serif" font-size="11" lengthAdjust="spacing" textLength="41.8516" x="513" y="323.4304">&#171;trace&#187;</text></g><!--link PublicationAnalysis to Publication--><g id="link_PublicationAnalysis_Publication"><path d="M707.41,437.75 C694.68,471.47 666.1,536.75 623,577.24 C611.46,588.09 531.2192,625.5005 481.9892,647.9505 " fill="none" id="PublicationAnalysis-to-Publication" style="stroke:#3CDFFF;stroke-width:1.0;stroke-dasharray:7.0,7.0;"/><polygon fill="#3CDFFF" points="476.53,650.44,486.3784,650.3452,481.0793,648.3654,483.0591,643.0663,476.53,650.44" style="stroke:#3CDFFF;stroke-width:1.0;"/><text fill="#3CDFFF" font-family="sans-serif" font-size="11" lengthAdjust="spacing" textLength="41.8516" x="675" y="546.2404">&#171;trace&#187;</text></g><!--SRC=[jPLDZzCm48Rl-HLMEN1gK84BLR2qwWfMQ94gkd21FRZ9f5Zhs97jq2re_pl-IDCcSRgfjEqXZJpZPyRpZYVgWVAII58WfNSCp5FIL5S5YrHZoI0d5TDtyAYl6Dtm0hX6gNc0x7jz4bolw5z0iraKbIHz81j0LvomdQBgNuJCRoqgdX6vGvDbjMOq9PeA_ejVWoQK_Q2mdI2Yq97jODc37CTaG7MRqjtPyazDQb8mD5b881fQmHVUna0wHC_ZO6-GZdaoIpITub4eInhXvtYXqpqTIdqDoaZa2xrVMvj_u1bA4dWi9IWrVn_FFiHlCVP-Ww8C2s5OQFdzCy8uG2W8vRTa9ogzb2Ad31odjph0QMGAri98rItKSuhP65_87x9A9IrrADGtazGOFrBftzQhe5d6O4ia11ElIYP85YlAD_NP_ShABGm3weO-EaGufQUMkhaqSQsyPufvemjc-JTtNs_3Efggb9Ls-_phGYcxOx5QXJVa9fCfsO8IXJ-tNGXlsXTB-PCDdBDxnrpESOnhnOBcQMPkIPFli4kTsx23JytPwmOnYxO5MalMyrZUdl54PpvtyJqWU067fu_V5BnjSsHck6aLTNPWEs9UQqbIY4wFlFZdguq4uFSnxbLrZX9RTACz4_AZSyD9ugWO9s-i3P-1F_Ja2uFtNVl2sB1Qeu94OxuE9bOg967tpVtem9sr3p-NVQflBXBGZTsBa5jp-I8HwlasYXq5lkqMzYxDyZplj507wNrwpFy0]--></g></svg>