<svg xmlns="http://www.w3.org/2000/svg" xmlns:xlink="http://www.w3.org/1999/xlink" contentStyleType="text/css" data-diagram-type="DESCRIPTION" height="658px" preserveAspectRatio="none" style="width:722px;height:658px;background:#FFFFFF;" version="1.1" viewBox="0 0 722 658" width="722px" zoomAndPan="magnify"><defs/><g><!--cluster pc--><g class="cluster" data-entity="pc" data-source-line="5" data-uid="ent0002" id="cluster_pc"><polygon fill="none" points="16,16,26,6,158,6,158,216.61,148,226.61,16,226.61,16,16" style="stroke:#181818;stroke-width:1;"/><line style="stroke:#181818;stroke-width:1;" x1="148" x2="158" y1="16" y2="6"/><line style="stroke:#181818;stroke-width:1;" x1="16" x2="148" y1="16" y2="16"/><line style="stroke:#181818;stroke-width:1;" x1="148" x2="148" y1="16" y2="226.61"/><text fill="#000000" font-family="sans-serif" font-size="11" font-weight="bold" lengthAdjust="spacing" textLength="36.1636" x="64.9182" y="29.2104">Client</text></g><!--cluster server--><g class="cluster" data-entity="server" data-source-line="12" data-uid="ent0006" id="cluster_server"><polygon fill="none" points="185,16,195,6,502,6,502,631.02,492,641.02,185,641.02,185,16" style="stroke:#181818;stroke-width:1;"/><line style="stroke:#181818;stroke-width:1;" x1="492" x2="502" y1="16" y2="6"/><line style="stroke:#181818;stroke-width:1;" x1="185" x2="492" y1="16" y2="16"/><line style="stroke:#181818;stroke-width:1;" x1="492" x2="492" y1="16" y2="641.02"/><text fill="#000000" font-family="sans-serif" font-size="11" font-weight="bold" lengthAdjust="spacing" textLength="40.8633" x="319.0684" y="29.2104">Server</text></g><!--cluster backend--><g class="cluster" data-entity="backend" data-source-line="17" data-uid="ent0011" id="cluster_backend"><rect fill="#F2DCDB" height="105.8" rx="2.5" ry="2.5" style="stroke:#181818;stroke-width:1;" width="253" x="217" y="280.61"/><rect fill="#F2DCDB" height="10" style="stroke:#181818;stroke-width:1;" width="15" x="450" y="285.61"/><rect fill="#F2DCDB" height="2" style="stroke:#181818;stroke-width:1;" width="4" x="448" y="287.61"/><rect fill="#F2DCDB" height="2" style="stroke:#181818;stroke-width:1;" width="4" x="448" y="291.61"/><text fill="#000000" font-family="sans-serif" font-size="11" font-weight="bold" lengthAdjust="spacing" textLength="52.2983" x="317.3508" y="303.8204">backend</text></g><!--cluster dbServer--><g class="cluster" data-entity="dbServer" data-source-line="28" data-uid="ent0018" id="cluster_dbServer"><polygon fill="none" points="526,450.41,536,440.41,705,440.41,705,525.22,695,535.22,526,535.22,526,450.41" style="stroke:#181818;stroke-width:1;"/><line style="stroke:#181818;stroke-width:1;" x1="695" x2="705" y1="450.41" y2="440.41"/><line style="stroke:#181818;stroke-width:1;" x1="526" x2="695" y1="450.41" y2="450.41"/><line style="stroke:#181818;stroke-width:1;" x1="695" x2="695" y1="450.41" y2="535.22"/><text fill="#000000" font-family="sans-serif" font-size="11" font-weight="bold" lengthAdjust="spacing" textLength="103.2324" x="559.8838" y="463.6204">Database Server</text></g><!--cluster smtpServer--><g class="cluster" data-entity="smtpServer" data-source-line="32" data-uid="ent0020" id="cluster_smtpServer"><polygon fill="none" points="526,141.8,536,131.8,686,131.8,686,216.61,676,226.61,526,226.61,526,141.8" style="stroke:#181818;stroke-width:1;"/><line style="stroke:#181818;stroke-width:1;" x1="676" x2="686" y1="141.8" y2="131.8"/><line style="stroke:#181818;stroke-width:1;" x1="526" x2="676" y1="141.8" y2="141.8"/><line style="stroke:#181818;stroke-width:1;" x1="676" x2="676" y1="141.8" y2="226.61"/><text fill="#000000" font-family="sans-serif" font-size="11" font-weight="bold" lengthAdjust="spacing" textLength="79.127" x="562.4365" y="155.0104">SMTP Server</text></g><!--entity browser--><g class="entity" data-entity="browser" data-source-line="6" data-uid="ent0003" id="entity_browser"><rect fill="#FFFFFF" height="42.8047" rx="2.5" ry="2.5" style="stroke:#181818;stroke-width:0.5;" width="110.4956" x="31.75" y="42"/><rect fill="#FFFFFF" height="10" style="stroke:#181818;stroke-width:0.5;" width="15" x="122.2456" y="47"/><rect fill="#FFFFFF" height="2" style="stroke:#181818;stroke-width:0.5;" width="4" x="120.2456" y="49"/><rect fill="#FFFFFF" height="2" style="stroke:#181818;stroke-width:0.5;" width="4" x="120.2456" y="53"/><text fill="#000000" font-family="sans-serif" font-size="11" lengthAdjust="spacing" textLength="70.4956" x="46.75" y="72.2104">web browser</text></g><!--entity frontend--><g class="entity" data-entity="frontend" data-source-line="7" data-uid="ent0004" id="entity_frontend"><rect fill="#F2DCDB" height="42.8047" rx="2.5" ry="2.5" style="stroke:#181818;stroke-width:0.5;" width="87.1313" x="43.43" y="167.8"/><rect fill="#F2DCDB" height="10" style="stroke:#181818;stroke-width:0.5;" width="15" x="110.5613" y="172.8"/><rect fill="#F2DCDB" height="2" style="stroke:#181818;stroke-width:0.5;" width="4" x="108.5613" y="174.8"/><rect fill="#F2DCDB" height="2" style="stroke:#181818;stroke-width:0.5;" width="4" x="108.5613" y="178.8"/><text fill="#000000" font-family="sans-serif" font-size="11" lengthAdjust="spacing" textLength="47.1313" x="58.43" y="198.0104">frontend</text></g><!--entity webserver--><g class="entity" data-entity="webserver" data-source-line="13" data-uid="ent0007" id="entity_webserver"><rect fill="#FFFFFF" height="42.8047" rx="2.5" ry="2.5" style="stroke:#181818;stroke-width:0.5;" width="104.1953" x="206.9" y="42"/><rect fill="#FFFFFF" height="10" style="stroke:#181818;stroke-width:0.5;" width="15" x="291.0953" y="47"/><rect fill="#FFFFFF" height="2" style="stroke:#181818;stroke-width:0.5;" width="4" x="289.0953" y="49"/><rect fill="#FFFFFF" height="2" style="stroke:#181818;stroke-width:0.5;" width="4" x="289.0953" y="53"/><text fill="#000000" font-family="sans-serif" font-size="11" lengthAdjust="spacing" textLength="64.1953" x="221.9" y="72.2104">Web Server</text></g><!--entity aspnetcore--><g class="entity" data-entity="aspnetcore" data-source-line="14" data-uid="ent0008" id="entity_aspnetcore"><rect fill="#FFFFFF" height="42.8047" rx="2.5" ry="2.5" style="stroke:#181818;stroke-width:0.5;" width="115.7324" x="201.13" y="167.8"/><rect fill="#FFFFFF" height="10" style="stroke:#181818;stroke-width:0.5;" width="15" x="296.8624" y="172.8"/><rect fill="#FFFFFF" height="2" style="stroke:#181818;stroke-width:0.5;" width="4" x="294.8624" y="174.8"/><rect fill="#FFFFFF" height="2" style="stroke:#181818;stroke-width:0.5;" width="4" x="294.8624" y="178.8"/><text fill="#000000" font-family="sans-serif" font-size="11" lengthAdjust="spacing" textLength="75.7324" x="216.13" y="198.0104">ASP.NET Core</text></g><!--entity nugetPackages--><g class="entity" data-entity="nugetPackages" data-source-line="15" data-uid="ent0009" id="entity_nugetPackages"><rect fill="#FFFFFF" height="42.8047" rx="2.5" ry="2.5" style="stroke:#181818;stroke-width:0.5;" width="130.3149" x="225.84" y="476.41"/><rect fill="#FFFFFF" height="10" style="stroke:#181818;stroke-width:0.5;" width="15" x="336.1549" y="481.41"/><rect fill="#FFFFFF" height="2" style="stroke:#181818;stroke-width:0.5;" width="4" x="334.1549" y="483.41"/><rect fill="#FFFFFF" height="2" style="stroke:#181818;stroke-width:0.5;" width="4" x="334.1549" y="487.41"/><text fill="#000000" font-family="sans-serif" font-size="11" lengthAdjust="spacing" textLength="90.3149" x="240.84" y="506.6204">NuGet Packages</text></g><!--entity pg--><g class="entity" data-entity="pg" data-source-line="16" data-uid="ent0010" id="entity_pg"><rect fill="#FFFFFF" height="42.8047" rx="2.5" ry="2.5" style="stroke:#181818;stroke-width:0.5;" width="53.9648" x="264.02" y="582.22"/><rect fill="#FFFFFF" height="10" style="stroke:#181818;stroke-width:0.5;" width="15" x="297.9848" y="587.22"/><rect fill="#FFFFFF" height="2" style="stroke:#181818;stroke-width:0.5;" width="4" x="295.9848" y="589.22"/><rect fill="#FFFFFF" height="2" style="stroke:#181818;stroke-width:0.5;" width="4" x="295.9848" y="593.22"/><text fill="#000000" font-family="sans-serif" font-size="11" lengthAdjust="spacing" textLength="13.9648" x="279.02" y="612.4304">pg</text></g><!--entity app--><g class="entity" data-entity="app" data-source-line="18" data-uid="ent0012" id="entity_app"><rect fill="#F2DCDB" height="42.8047" rx="2.5" ry="2.5" style="stroke:#181818;stroke-width:0.5;" width="60.7056" x="260.65" y="319.61"/><rect fill="#F2DCDB" height="10" style="stroke:#181818;stroke-width:0.5;" width="15" x="301.3556" y="324.61"/><rect fill="#F2DCDB" height="2" style="stroke:#181818;stroke-width:0.5;" width="4" x="299.3556" y="326.61"/><rect fill="#F2DCDB" height="2" style="stroke:#181818;stroke-width:0.5;" width="4" x="299.3556" y="330.61"/><text fill="#000000" font-family="sans-serif" font-size="11" lengthAdjust="spacing" textLength="20.7056" x="275.65" y="349.8204">app</text></g><!--entity wwwroot--><g class="entity" data-entity="wwwroot" data-source-line="19" data-uid="ent0013" id="entity_wwwroot"><rect fill="#F2DCDB" height="42.8047" rx="2.5" ry="2.5" style="stroke:#181818;stroke-width:0.5;" width="89.2852" x="356.36" y="319.61"/><rect fill="#F2DCDB" height="10" style="stroke:#181818;stroke-width:0.5;" width="15" x="425.6452" y="324.61"/><rect fill="#F2DCDB" height="2" style="stroke:#181818;stroke-width:0.5;" width="4" x="423.6452" y="326.61"/><rect fill="#F2DCDB" height="2" style="stroke:#181818;stroke-width:0.5;" width="4" x="423.6452" y="330.61"/><text fill="#000000" font-family="sans-serif" font-size="11" lengthAdjust="spacing" textLength="49.2852" x="371.36" y="349.8204">wwwroot</text></g><!--entity postgresql--><g class="entity" data-entity="postgresql" data-source-line="29" data-uid="ent0019" id="entity_postgresql"><rect fill="#FFFFFF" height="42.8047" rx="2.5" ry="2.5" style="stroke:#181818;stroke-width:0.5;" width="103.4487" x="542.28" y="476.41"/><rect fill="#FFFFFF" height="10" style="stroke:#181818;stroke-width:0.5;" width="15" x="625.7287" y="481.41"/><rect fill="#FFFFFF" height="2" style="stroke:#181818;stroke-width:0.5;" width="4" x="623.7287" y="483.41"/><rect fill="#FFFFFF" height="2" style="stroke:#181818;stroke-width:0.5;" width="4" x="623.7287" y="487.41"/><text fill="#000000" font-family="sans-serif" font-size="11" lengthAdjust="spacing" textLength="63.4487" x="557.28" y="506.6204">PostgreSQL</text></g><!--entity smtp--><g class="entity" data-entity="smtp" data-source-line="33" data-uid="ent0021" id="entity_smtp"><rect fill="#FFFFFF" height="42.8047" rx="2.5" ry="2.5" style="stroke:#181818;stroke-width:0.5;" width="128.7788" x="541.61" y="167.8"/><rect fill="#FFFFFF" height="10" style="stroke:#181818;stroke-width:0.5;" width="15" x="650.3888" y="172.8"/><rect fill="#FFFFFF" height="2" style="stroke:#181818;stroke-width:0.5;" width="4" x="648.3888" y="174.8"/><rect fill="#FFFFFF" height="2" style="stroke:#181818;stroke-width:0.5;" width="4" x="648.3888" y="178.8"/><text fill="#000000" font-family="sans-serif" font-size="11" lengthAdjust="spacing" textLength="88.7788" x="556.61" y="198.0104">smtp.gmail.com</text></g><!--link browser to frontend--><g class="link" data-entity-1="browser" data-entity-2="frontend" data-source-line="9" data-uid="lnk5" id="link_browser_frontend"><path d="M87,97.12 C87,119.97 87,138.53 87,161.41" fill="none" id="browser-frontend" style="stroke:#181818;stroke-width:1;"/><polygon fill="#181818" points="87,85.12,83,91.12,87,97.12,91,91.12,87,85.12" style="stroke:#181818;stroke-width:1;"/><polygon fill="#181818" points="87,167.41,91,158.41,87,162.41,83,158.41,87,167.41" style="stroke:#181818;stroke-width:1;"/></g><!--link webserver to aspnetcore--><g class="link" data-entity-1="webserver" data-entity-2="aspnetcore" data-source-line="22" data-uid="lnk14" id="link_webserver_aspnetcore"><path d="M259,91.12 C259,113.97 259,138.53 259,161.41" fill="none" id="webserver-aspnetcore" style="stroke:#181818;stroke-width:1;"/><polygon fill="#181818" points="259,85.12,255,94.12,259,90.12,263,94.12,259,85.12" style="stroke:#181818;stroke-width:1;"/><polygon fill="#181818" points="259,167.41,263,158.41,259,162.41,255,158.41,259,167.41" style="stroke:#181818;stroke-width:1;"/></g><!--link aspnetcore to backend--><g class="link" data-entity-1="aspnetcore" data-entity-2="backend" data-source-line="23" data-uid="lnk15" id="link_aspnetcore_backend"><path d="M252.9429,216.8814 C250.6454,227.0114 249.0331,234.1156 245.9069,247.8925 C244.3438,254.7809 242.7339,261.8747 241.1342,268.9232 C240.3344,272.4475 239.5371,275.9604 238.7494,279.4307 C238.7002,279.6476 239.979,274.0132 239.9299,274.2297" fill="none" id="aspnetcore-backend" style="stroke:#181818;stroke-width:1;"/><polygon fill="#181818" points="254.27,211.03,248.3784,218.9224,253.1641,215.9062,256.1803,220.6918,254.27,211.03" style="stroke:#181818;stroke-width:1;"/><polygon fill="#181818" points="238.6018,280.0809,244.4947,272.1895,239.7085,275.2049,236.6931,270.4188,238.6018,280.0809" style="stroke:#181818;stroke-width:1;"/></g><!--link nugetPackages to pg--><g class="link" data-entity-1="nugetPackages" data-entity-2="pg" data-source-line="24" data-uid="lnk16" id="link_nugetPackages_pg"><path d="M291,531.32 C291,549.4 291,557.62 291,575.8" fill="none" id="nugetPackages-pg" style="stroke:#181818;stroke-width:1;"/><polygon fill="#181818" points="291,519.32,287,525.32,291,531.32,295,525.32,291,519.32" style="stroke:#181818;stroke-width:1;"/><polygon fill="#181818" points="291,581.8,295,572.8,291,576.8,287,572.8,291,581.8" style="stroke:#181818;stroke-width:1;"/></g><!--link app to nugetPackages--><g class="link" data-entity-1="app" data-entity-2="nugetPackages" data-source-line="25" data-uid="lnk17" id="link_app_nugetPackages"><path d="M291,362.89 C291,392.6 291,440.74 291,470.27" fill="none" id="app-to-nugetPackages" style="stroke:#181818;stroke-width:1;"/><polygon fill="#181818" points="291,476.27,295,467.27,291,471.27,287,467.27,291,476.27" style="stroke:#181818;stroke-width:1;"/></g><!--link browser to webserver--><g class="link" data-entity-1="browser" data-entity-2="webserver" data-source-line="36" data-uid="lnk22" id="link_browser_webserver"><path d="M148.37,63.4 C168.99,63.4 180.32,63.4 200.66,63.4" fill="none" id="browser-webserver" style="stroke:#FF4500;stroke-width:1;stroke-dasharray:7,7;"/><polygon fill="#FF4500" points="142.37,63.4,151.37,67.4,147.37,63.4,151.37,59.4,142.37,63.4" style="stroke:#FF4500;stroke-width:1;"/><polygon fill="#FF4500" points="206.66,63.4,197.66,59.4,201.66,63.4,197.66,67.4,206.66,63.4" style="stroke:#FF4500;stroke-width:1;"/><text fill="#FF4500" font-family="sans-serif" font-size="11" lengthAdjust="spacing" textLength="28.3433" x="160.58" y="57.6104">HTTP</text></g><!--link app to postgresql--><g class="link" data-entity-1="app" data-entity-2="postgresql" data-source-line="37" data-uid="lnk23" id="link_app_postgresql"><path d="M304.7448,367.9163 C312.9748,381.6463 322.63,393.54 339,402.41 C355.68,411.45 405.35,406.93 424,410.41 C459.41,417.01 469.46,416.98 502,432.41 C526.49,444.02 546.8016,458.291 564.5516,472.311" fill="none" id="app-postgresql" style="stroke:#FF4500;stroke-width:1;stroke-dasharray:7,7;"/><polygon fill="#FF4500" points="301.66,362.77,302.8563,372.5459,304.2306,367.0586,309.718,368.4329,301.66,362.77" style="stroke:#FF4500;stroke-width:1;"/><polygon fill="#FF4500" points="569.26,476.03,564.6767,467.3126,565.3363,472.9308,559.7181,473.5905,569.26,476.03" style="stroke:#FF4500;stroke-width:1;"/><text fill="#FF4500" font-family="sans-serif" font-size="11" lengthAdjust="spacing" textLength="43.8442" x="484" y="421.6204">Intranet</text></g><!--link smtp to app--><g class="link" data-entity-1="smtp" data-entity-2="app" data-source-line="38" data-uid="lnk25" id="link_smtp_app"><path d="M556.3648,213.4615 C538.1148,221.5515 522.05,228.01 502,234.61 C461.65,247.88 450.84,249.29 409,256.61 C393.58,259.3 352.27,256.3 339,264.61 C318.87,277.19 307.9735,296.134 300.5935,313.794" fill="none" id="smtp-app" style="stroke:#FF4500;stroke-width:1;stroke-dasharray:7,7;"/><polygon fill="#FF4500" points="561.85,211.03,552.0011,211.0205,557.279,213.0563,555.2432,218.3341,561.85,211.03" style="stroke:#FF4500;stroke-width:1;"/><polygon fill="#FF4500" points="298.28,319.33,305.4409,312.5682,300.2079,314.7166,298.0595,309.4836,298.28,319.33" style="stroke:#FF4500;stroke-width:1;"/><text fill="#FF4500" font-family="sans-serif" font-size="11" lengthAdjust="spacing" textLength="28.3433" x="476" y="253.8204">HTTP</text></g><!--SRC=[ZPFBJeGm58RtF4KpipCPpBWqIABZDT4HXSI5SL7e0Sb0YsqHevbtzvJR0ECaiY0z_J_-SsbHcvGNLDASh4HU20vSNz1eaqXHShOIcP2aUayrMAe76SIqp7G0N_eyInEUupSamXV8VUfQSEsdtq2MIylYWW6PhR8KuHcXYXGH-R48Fb6NdCmg24aeHQL0raoxdc2nH6FWZCpZ4nQnqAhrbYL7YuNR8zQso-o3_6nTLRtSp_w2sGSO5jEGK-xSz-prLO1Jar2JL1KST8JX55sNDw29XrEb2QWQvcK2kjkPy4KosGYH6tJQrZncQ57q-XzoLLLI2DqFowZRPcHzXyHPC9pQf8zTY3hARJ6rDke2Psu-RwitzTJnkDF-92wffY5LC9mr2_q3X-89fHC9_jDzSskQK7raWwDz2BoXcSfriRCRU1d1JdAQPZRkzgnnwcwFOzklyqT9UGBFmDwaRRkxCPqI9nRcmfj_uwodtDiWy9nZ8xcMwTuPUJ2q6DHzoEIEQro3FcnK6YDJy3_g-0K0]--></g></svg>