<svg xmlns="http://www.w3.org/2000/svg" xmlns:xlink="http://www.w3.org/1999/xlink" contentStyleType="text/css" height="958px" preserveAspectRatio="none" style="width:332px;height:958px;background:#FFFFFF;" version="1.1" viewBox="0 0 332 958" width="332px" zoomAndPan="magnify"><defs/><g><!--cluster Aplicaci?n Base--><g id="cluster_Aplicaci&#243;n Base"><rect fill="none" height="945" style="stroke:#181818;stroke-width:1.0;" width="217.5" x="109.47" y="7"/><text fill="#000000" font-family="sans-serif" font-size="11" font-weight="bold" lengthAdjust="spacing" textLength="97.1953" x="169.6223" y="19.2104">Aplicaci&#243;n Base</text></g><g id="elem_UC2"><ellipse cx="218.2245" cy="918.9989" fill="#F1F1F1" rx="70.5945" ry="16.5189" style="stroke:#181818;stroke-width:0.5;"/><text fill="#000000" font-family="sans-serif" font-size="11" lengthAdjust="spacing" textLength="107.0674" x="164.6908" y="920.807">UC2 - Iniciar Sesi&#243;n</text></g><g id="elem_UC3"><ellipse cx="218.217" cy="850.9974" fill="#F1F1F1" rx="71.087" ry="16.6174" style="stroke:#181818;stroke-width:0.5;"/><text fill="#000000" font-family="sans-serif" font-size="11" lengthAdjust="spacing" textLength="108.1846" x="164.1247" y="852.8055">UC3 - Cerrar Sesi&#243;n</text></g><g id="elem_UC4"><ellipse cx="218.2191" cy="777.9998" fill="#F1F1F1" rx="92.7491" ry="20.9498" style="stroke:#181818;stroke-width:0.5;"/><text fill="#000000" font-family="sans-serif" font-size="11" lengthAdjust="spacing" textLength="155.6919" x="140.3731" y="779.8079">UC4 - Recuperar contrase&#241;a</text></g><g id="elem_UC5"><ellipse cx="218.2242" cy="707.0008" fill="#F1F1F1" rx="60.8042" ry="14.5608" style="stroke:#181818;stroke-width:0.5;"/><text fill="#000000" font-family="sans-serif" font-size="11" lengthAdjust="spacing" textLength="84.2617" x="176.0934" y="708.809">UC5 - Ver perfil</text></g><g id="elem_UC6"><ellipse cx="218.2227" cy="641.9985" fill="#F1F1F1" rx="66.6427" ry="15.7285" style="stroke:#181818;stroke-width:0.5;"/><text fill="#000000" font-family="sans-serif" font-size="11" lengthAdjust="spacing" textLength="98.0117" x="169.2169" y="643.8066">UC6 - Editar perfil</text></g><g id="elem_UC7"><ellipse cx="218.2241" cy="573.0008" fill="#F1F1F1" rx="80.7541" ry="18.5508" style="stroke:#181818;stroke-width:0.5;"/><text fill="#000000" font-family="sans-serif" font-size="11" lengthAdjust="spacing" textLength="129.7173" x="153.3654" y="574.8089">UC7 - Crear Publicaci&#243;n</text></g><g id="elem_UC8"><ellipse cx="218.2192" cy="500.0038" fill="#F1F1F1" rx="86.7692" ry="19.7538" style="stroke:#181818;stroke-width:0.5;"/><text fill="#000000" font-family="sans-serif" font-size="11" lengthAdjust="spacing" textLength="142.8228" x="146.8078" y="501.8119">UC8 - Listar publicaciones</text></g><g id="elem_UC9"><ellipse cx="218.2173" cy="425.9955" fill="#F1F1F1" rx="81.9773" ry="18.7955" style="stroke:#181818;stroke-width:0.5;"/><text fill="#000000" font-family="sans-serif" font-size="11" lengthAdjust="spacing" textLength="132.3975" x="152.0185" y="427.8036">UC9 - Editar publicaci&#243;n</text></g><g id="elem_UC10"><ellipse cx="218.224" cy="352.9988" fill="#F1F1F1" rx="84.094" ry="19.2188" style="stroke:#181818;stroke-width:0.5;"/><text fill="#000000" font-family="sans-serif" font-size="11" lengthAdjust="spacing" textLength="137.0166" x="149.7157" y="354.8069">UC10 - Crear comentario</text></g><g id="elem_UC11"><ellipse cx="218.2235" cy="279.0007" fill="#F1F1F1" rx="86.8535" ry="19.7707" style="stroke:#181818;stroke-width:0.5;"/><text fill="#000000" font-family="sans-serif" font-size="11" lengthAdjust="spacing" textLength="143.0054" x="146.7209" y="280.8088">UC11 - Listar comentarios</text></g><g id="elem_UC12"><ellipse cx="218.2162" cy="205.0032" fill="#F1F1F1" rx="85.1662" ry="19.4332" style="stroke:#181818;stroke-width:0.5;"/><text fill="#000000" font-family="sans-serif" font-size="11" lengthAdjust="spacing" textLength="139.3477" x="148.5423" y="206.8113">UC12 - Editar comentario</text></g><g id="elem_UC13"><ellipse cx="218.2179" cy="130.0016" fill="#F1F1F1" rx="90.9579" ry="20.5916" style="stroke:#181818;stroke-width:0.5;"/><text fill="#000000" font-family="sans-serif" font-size="11" lengthAdjust="spacing" textLength="151.8516" x="142.2921" y="131.8097">UC13 - Eliminar comentario</text></g><g id="elem_UC14"><ellipse cx="218.2236" cy="56.0007" fill="#F1F1F1" rx="78.9036" ry="18.1807" style="stroke:#181818;stroke-width:0.5;"/><text fill="#000000" font-family="sans-serif" font-size="11" lengthAdjust="spacing" textLength="125.646" x="155.4006" y="57.8088">UC14 - Ver publicaci&#243;n</text></g><!--entity User--><g id="elem_User"><ellipse cx="35.7344" cy="465.7" fill="#F1F1F1" rx="8" ry="8" style="stroke:#181818;stroke-width:0.5;"/><path d="M35.7344,473.7 L35.7344,500.7 M22.7344,481.7 L48.7344,481.7 M35.7344,500.7 L22.7344,515.7 M35.7344,500.7 L48.7344,515.7 " fill="none" style="stroke:#181818;stroke-width:0.5;"/><text fill="#000000" font-family="sans-serif" font-size="11" lengthAdjust="spacing" textLength="41.8032" x="14.8328" y="527.4104">Usuario</text><text fill="#000000" font-family="sans-serif" font-size="11" lengthAdjust="spacing" textLength="59.4688" x="6" y="540.2151">Registrado</text></g><!--link User to UC2--><g id="link_User_UC2"><path d="M38.37,543.28 C42.64,632.97 57.04,834.94 101.47,885 C114.4,899.57 133.21,908.04 151.92,912.92 " fill="none" id="User-UC2" style="stroke:#181818;stroke-width:1.0;"/></g><!--link User to UC3--><g id="link_User_UC3"><path d="M40.16,543.13 C47.13,620.03 65.42,776.49 101.47,816 C114.77,830.58 133.91,839.17 152.81,844.21 " fill="none" id="User-UC3" style="stroke:#181818;stroke-width:1.0;"/></g><!--link User to UC4--><g id="link_User_UC4"><path d="M36.7,542.92 C38.99,595.78 50.79,685.16 101.47,739 C112.88,751.12 128.17,759.48 143.9,765.23 " fill="none" id="User-UC4" style="stroke:#181818;stroke-width:1.0;"/></g><!--link User to UC5--><g id="link_User_UC5"><path d="M41.55,543.21 C48.26,582.94 64.14,640.7 101.47,675 C117.51,689.74 139.75,697.78 160.44,702.13 " fill="none" id="User-UC5" style="stroke:#181818;stroke-width:1.0;"/></g><!--link User to UC6--><g id="link_User_UC6"><path d="M53.12,543.23 C63.73,565.83 79.67,592.21 101.47,609 C118.02,621.75 139.31,629.58 159.1,634.38 " fill="none" id="User-UC6" style="stroke:#181818;stroke-width:1.0;"/></g><!--link User to UC7--><g id="link_User_UC7"><path d="M65.68,518.34 C76.63,524.79 89.36,531.73 101.47,537 C121.25,545.61 143.75,553.09 163.61,558.97 " fill="none" id="User-UC7" style="stroke:#181818;stroke-width:1.0;"/></g><!--link User to UC8--><g id="link_User_UC8"><path d="M65.73,500 C83.57,500 107.45,500 130.97,500 " fill="none" id="User-UC8" style="stroke:#181818;stroke-width:1.0;"/></g><!--link User to UC9--><g id="link_User_UC9"><path d="M65.71,481.71 C76.65,475.27 89.38,468.32 101.47,463 C121.36,454.25 143.98,446.55 163.92,440.48 " fill="none" id="User-UC9" style="stroke:#181818;stroke-width:1.0;"/></g><!--link User to UC10--><g id="link_User_UC10"><path d="M53.11,456.92 C63.76,434.13 79.74,407.36 101.47,390 C115.89,378.48 133.98,370.51 151.54,365.01 " fill="none" id="User-UC10" style="stroke:#181818;stroke-width:1.0;"/></g><!--link User to UC11--><g id="link_User_UC11"><path d="M40.94,456.93 C47.23,415.41 62.85,353.52 101.47,316 C113.8,304.02 130.01,295.92 146.38,290.44 " fill="none" id="User-UC11" style="stroke:#181818;stroke-width:1.0;"/></g><!--link User to UC12--><g id="link_User_UC12"><path d="M42.43,456.81 C51.84,391.74 72.52,272.86 101.47,242 C113.31,229.38 129.44,221.06 145.89,215.56 " fill="none" id="User-UC12" style="stroke:#181818;stroke-width:1.0;"/></g><!--link User to UC13--><g id="link_User_UC13"><path d="M39.78,456.99 C46.27,377.18 64.02,210.43 101.47,168 C112.32,155.71 127.2,147.38 142.69,141.74 " fill="none" id="User-UC13" style="stroke:#181818;stroke-width:1.0;"/></g><!--link User to UC14--><g id="link_User_UC14"><path d="M37.97,456.71 C41.53,363.11 54.72,146.03 101.47,92 C113.31,78.31 130.26,69.76 147.55,64.44 " fill="none" id="User-UC14" style="stroke:#181818;stroke-width:1.0;"/></g><!--SRC=[RPBDJiCm3CVlUGghzqdBrdqTnpGa90veOvouXDGh5cqw9Qd4XtWen2FinN2WswAK7gA_rP_jV-ou5p87PLKDphzLoASbxTkw4XNkFVW6B9NF7Wgog3qrHhXpHe5xrLR-7b_zigBIr6WyQ3xGzgdhnlWjlID8AOJIlh6GxLohB3MFPeCbSMTLD1ae1pl75KHeg4p9fhBbeIAjD1s_3LmfXnby2E2lTQWvv4gh4GpWnf0cPM6BBg1_jLQZ51qpka9hU-Gu9NCcDwZR0mPOynKi_pb-gIuXJnCcdF205ZXXJrL7JL9gojIw8AyIS9g2i-3K8dDtxTDv11qzI-avqxSynr3sX3S6NSVFKtuHsUYNNwIu79xTw2RiEkokW-MmHykBcmj-yiAF8EL75pVzyhqToh34TKKrcNyJUgkK-Mar_QlAN7mA4LuT30Q_B-QYnv7E8ps9z3JIiqZF8xs8D4yh2cGSnArbt5lcFm00]--></g></svg>