<svg xmlns="http://www.w3.org/2000/svg" xmlns:xlink="http://www.w3.org/1999/xlink" contentStyleType="text/css" height="317px" preserveAspectRatio="none" style="width:335px;height:317px;background:#FFFFFF;" version="1.1" viewBox="0 0 335 317" width="335px" zoomAndPan="magnify"><defs/><g><!--cluster Aplicaci?n Base--><g id="cluster_Aplicaci&#243;n Base"><rect fill="none" height="304" style="stroke:#181818;stroke-width:1.0;" width="205.7" x="123.55" y="7"/><text fill="#000000" font-family="sans-serif" font-size="11" font-weight="bold" lengthAdjust="spacing" textLength="97.1953" x="177.8023" y="19.2104">Aplicaci&#243;n Base</text></g><g id="elem_UC1"><ellipse cx="226.3997" cy="277.0019" fill="#F1F1F1" rx="80.0597" ry="18.4119" style="stroke:#181818;stroke-width:0.5;"/><text fill="#000000" font-family="sans-serif" font-size="11" lengthAdjust="spacing" textLength="128.1919" x="162.3037" y="278.81">UC1 - Registrar usuario</text></g><g id="elem_UC8"><ellipse cx="226.3992" cy="204.0038" fill="#F1F1F1" rx="86.7692" ry="19.7538" style="stroke:#181818;stroke-width:0.5;"/><text fill="#000000" font-family="sans-serif" font-size="11" lengthAdjust="spacing" textLength="142.8228" x="154.9878" y="205.8119">UC8 - Listar publicaciones</text></g><g id="elem_UC11"><ellipse cx="226.4035" cy="129.0007" fill="#F1F1F1" rx="86.8535" ry="19.7707" style="stroke:#181818;stroke-width:0.5;"/><text fill="#000000" font-family="sans-serif" font-size="11" lengthAdjust="spacing" textLength="143.0054" x="154.9009" y="130.8088">UC11 - Listar comentarios</text></g><g id="elem_UC14"><ellipse cx="226.4036" cy="56.0007" fill="#F1F1F1" rx="78.9036" ry="18.1807" style="stroke:#181818;stroke-width:0.5;"/><text fill="#000000" font-family="sans-serif" font-size="11" lengthAdjust="spacing" textLength="125.646" x="163.5806" y="57.8088">UC14 - Ver publicaci&#243;n</text></g><!--entity Anonymous--><g id="elem_Anonymous"><ellipse cx="42.7732" cy="132.7" fill="#F1F1F1" rx="8" ry="8" style="stroke:#181818;stroke-width:0.5;"/><path d="M42.7732,140.7 L42.7732,167.7 M29.7732,148.7 L55.7732,148.7 M42.7732,167.7 L29.7732,182.7 M42.7732,167.7 L55.7732,182.7 " fill="none" style="stroke:#181818;stroke-width:0.5;"/><text fill="#000000" font-family="sans-serif" font-size="11" lengthAdjust="spacing" textLength="41.8032" x="21.8716" y="194.4104">Usuario</text><text fill="#000000" font-family="sans-serif" font-size="11" lengthAdjust="spacing" textLength="73.5464" x="6" y="207.2151">no registrado</text></g><!--link Anonymous to UC1--><g id="link_Anonymous_UC1"><path d="M78.68,209.99 C89.54,221.3 102.19,232.65 115.55,241 C131.54,251 150.6,258.51 168.32,264.01 " fill="none" id="Anonymous-UC1" style="stroke:#181818;stroke-width:1.0;"/></g><!--link Anonymous to UC8--><g id="link_Anonymous_UC8"><path d="M79.66,174.31 C102.71,179.01 133.33,185.24 160.55,190.79 " fill="none" id="Anonymous-UC8" style="stroke:#181818;stroke-width:1.0;"/></g><!--link Anonymous to UC11--><g id="link_Anonymous_UC11"><path d="M79.66,159.49 C102.92,154.63 133.88,148.15 161.28,142.41 " fill="none" id="Anonymous-UC11" style="stroke:#181818;stroke-width:1.0;"/></g><!--link Anonymous to UC14--><g id="link_Anonymous_UC14"><path d="M78.23,123.8 C89.16,112.22 101.97,100.55 115.55,92 C131.68,81.84 150.97,74.26 168.85,68.75 " fill="none" id="Anonymous-UC14" style="stroke:#181818;stroke-width:1.0;"/></g><!--SRC=[PO-nJiGm38RtF8NLlKEa3bqB4XCJS4mi8VKLYzIf4aVYG3mLZy2BuPQx0rqoM4hy-VkT_4gykEHco788g3MHbp874t0l814IJIy28oNqGf5DFa-Ck7Sbo0E-oH1euXbPm6l1L5CtaUMUtX6iDSPvYGcQNIukKNnYrXYSICFT61jm6GQEV9XZoSQimOudNQuPba3UUVh-OhXo6HluCA2dPFHwLUErXHRkZgwaZIrXKshl4kuLlbLKoQKy_xeZOpxoVIMtVmC-hlzTxIVSLdxRAV-8_-ow-OdkpASnvtz2ssuRNZpq5L4Xjli1]--></g></svg>