<svg xmlns="http://www.w3.org/2000/svg" xmlns:xlink="http://www.w3.org/1999/xlink" contentStyleType="text/css" data-diagram-type="DESCRIPTION" height="831px" preserveAspectRatio="none" style="width:760px;height:831px;background:#FFFFFF;" version="1.1" viewBox="0 0 760 831" width="760px" zoomAndPan="magnify"><defs/><g><!--cluster Analysis--><g class="cluster" data-entity="Analysis" data-source-line="5" data-uid="ent0002" id="cluster_Analysis"><polygon fill="none" points="526,6,583.5732,6,590.5732,24.8047,656,24.8047,656,423.43,526,423.43,526,6" style="stroke:#000000;stroke-width:1.5;"/><line style="stroke:#000000;stroke-width:1.5;" x1="526" x2="590.5732" y1="24.8047" y2="24.8047"/><text fill="#000000" font-family="sans-serif" font-size="11" font-weight="bold" lengthAdjust="spacing" textLength="51.5732" x="530" y="18.2104">Analysis</text></g><!--cluster Design--><g class="cluster" data-entity="Design" data-source-line="14" data-uid="ent0008" id="cluster_Design"><polygon fill="none" points="16,273.22,64.6143,273.22,71.6143,292.0247,484,292.0247,484,824.66,16,824.66,16,273.22" style="stroke:#000000;stroke-width:1.5;"/><line style="stroke:#000000;stroke-width:1.5;" x1="16" x2="71.6143" y1="292.0247" y2="292.0247"/><text fill="#000000" font-family="sans-serif" font-size="11" font-weight="bold" lengthAdjust="spacing" textLength="42.6143" x="20" y="285.4304">Design</text></g><!--cluster backend--><g class="cluster" data-entity="backend" data-source-line="15" data-uid="ent0009" id="cluster_backend"><polygon fill="none" points="251,312.22,309.2983,312.22,316.2983,331.0247,460,331.0247,460,800.66,251,800.66,251,312.22" style="stroke:#000000;stroke-width:1.5;"/><line style="stroke:#000000;stroke-width:1.5;" x1="251" x2="316.2983" y1="331.0247" y2="331.0247"/><text fill="#000000" font-family="sans-serif" font-size="11" font-weight="bold" lengthAdjust="spacing" textLength="52.2983" x="255" y="324.4304">backend</text><text fill="#000000" font-family="sans-serif" font-size="11" font-style="italic" lengthAdjust="spacing" textLength="71.3818" x="323.8091" y="343.2351">&#171;Rails:7.1.3&#187;</text></g><!--cluster frontend--><g class="cluster" data-entity="frontend" data-source-line="23" data-uid="ent0016" id="cluster_frontend"><polygon fill="none" points="40,325.22,100.0225,325.22,107.0225,344.0247,227,344.0247,227,548.44,40,548.44,40,325.22" style="stroke:#000000;stroke-width:1.5;"/><line style="stroke:#000000;stroke-width:1.5;" x1="40" x2="107.0225" y1="344.0247" y2="344.0247"/><text fill="#000000" font-family="sans-serif" font-size="11" font-weight="bold" lengthAdjust="spacing" textLength="54.0225" x="44" y="337.4304">frontend</text></g><!--entity PublicationDetailViewAnalysis--><g class="entity" data-entity="PublicationDetailViewAnalysis" data-source-line="6" data-uid="ent0003" id="entity_PublicationDetailViewAnalysis"><path d="M551.4995,41 L551.4995,65 M551.4995,53 L568.4995,53" fill="none" style="stroke:#181818;stroke-width:0.5;"/><ellipse cx="580.4995" cy="53" fill="#F1F1F1" rx="12" ry="12" style="stroke:#181818;stroke-width:0.5;"/><text fill="#000000" font-family="sans-serif" font-size="11" lengthAdjust="spacing" textLength="60.5591" x="541.72" y="79.2104">Publication</text><text fill="#000000" font-family="sans-serif" font-size="11" lengthAdjust="spacing" textLength="58.749" x="542.625" y="92.0151">DetailView</text></g><!--entity PublicationAnalysis--><g class="entity" data-entity="PublicationAnalysis" data-source-line="7" data-uid="ent0004" id="entity_PublicationAnalysis"><ellipse cx="609.9995" cy="378.62" fill="#F1F1F1" rx="12" ry="12" style="stroke:#181818;stroke-width:0.5;"/><line style="stroke:#181818;stroke-width:0.5;" x1="597.9995" x2="621.9995" y1="392.62" y2="392.62"/><text fill="#000000" font-family="sans-serif" font-size="11" lengthAdjust="spacing" textLength="60.5591" x="579.72" y="404.8304">Publication</text></g><!--entity CreatePublicationControllerAnalysis--><g class="entity" data-entity="CreatePublicationControllerAnalysis" data-source-line="8" data-uid="ent0005" id="entity_CreatePublicationControllerAnalysis"><ellipse cx="590.9955" cy="171.61" fill="#F1F1F1" rx="12" ry="12" style="stroke:#181818;stroke-width:0.5;"/><polygon fill="#181818" points="586.9955,159.61,592.9955,154.61,590.9955,159.61,592.9955,164.61,586.9955,159.61" style="stroke:#181818;stroke-width:1;"/><text fill="#000000" font-family="sans-serif" font-size="11" lengthAdjust="spacing" textLength="97.3511" x="542.32" y="197.8204">CreatePublication</text><text fill="#000000" font-family="sans-serif" font-size="11" lengthAdjust="spacing" textLength="54.3501" x="563.8205" y="210.6251">Controller</text></g><!--entity PublicationDetailView--><g class="entity" data-entity="PublicationDetailView" data-source-line="16" data-uid="ent0010" id="entity_PublicationDetailView"><path d="M382.5032,612.2447 L382.5032,636.2447 M382.5032,624.2447 L399.5032,624.2447" fill="none" style="stroke:#181818;stroke-width:0.5;"/><ellipse cx="411.5032" cy="624.2447" fill="#F1F1F1" rx="12" ry="12" style="stroke:#181818;stroke-width:0.5;"/><text fill="#000000" font-family="sans-serif" font-size="11" lengthAdjust="spacing" textLength="81.5063" x="362.25" y="650.4551">home.html.erb</text><text fill="#000000" font-family="sans-serif" font-size="11" font-style="italic" lengthAdjust="spacing" textLength="60.2852" x="372.8606" y="605.6504">&#171;html.erb&#187;</text></g><!--entity mainLayoutProfileView--><g class="entity" data-entity="mainLayoutProfileView" data-source-line="17" data-uid="ent0011" id="entity_mainLayoutProfileView"><path d="M377.5015,743.8547 L377.5015,767.8547 M377.5015,755.8547 L394.5015,755.8547" fill="none" style="stroke:#181818;stroke-width:0.5;"/><ellipse cx="406.5015" cy="755.8547" fill="#F1F1F1" rx="12" ry="12" style="stroke:#181818;stroke-width:0.5;"/><text fill="#000000" font-family="sans-serif" font-size="11" lengthAdjust="spacing" textLength="84.6431" x="355.68" y="782.0651">layout.html.erb</text><text fill="#000000" font-family="sans-serif" font-size="11" font-style="italic" lengthAdjust="spacing" textLength="60.2852" x="367.859" y="737.2604">&#171;html.erb&#187;</text></g><!--entity PublicationController--><g class="entity" data-entity="PublicationController" data-source-line="18" data-uid="ent0012" id="entity_PublicationController"><ellipse cx="361.0001" cy="503.6347" fill="#F1F1F1" rx="12" ry="12" style="stroke:#181818;stroke-width:0.5;"/><polygon fill="#181818" points="357.0001,491.6347,363.0001,486.6347,361.0001,491.6347,363.0001,496.6347,357.0001,491.6347" style="stroke:#181818;stroke-width:1;"/><text fill="#000000" font-family="sans-serif" font-size="11" lengthAdjust="spacing" textLength="120.6401" x="300.68" y="529.8451">PublicationsController</text><text fill="#000000" font-family="sans-serif" font-size="11" font-style="italic" lengthAdjust="spacing" textLength="28.6494" x="346.6754" y="485.0404">&#171;RB&#187;</text></g><!--entity Router--><g class="entity" data-entity="Router" data-source-line="19" data-uid="ent0013" id="entity_Router"><ellipse cx="291.9986" cy="385.0247" fill="#F1F1F1" rx="12" ry="12" style="stroke:#181818;stroke-width:0.5;"/><polygon fill="#181818" points="287.9986,373.0247,293.9986,368.0247,291.9986,373.0247,293.9986,378.0247,287.9986,373.0247" style="stroke:#181818;stroke-width:1;"/><text fill="#000000" font-family="sans-serif" font-size="11" lengthAdjust="spacing" textLength="50.0371" x="266.98" y="411.2351">routes.rb</text><text fill="#000000" font-family="sans-serif" font-size="11" font-style="italic" lengthAdjust="spacing" textLength="28.6494" x="277.6738" y="366.4304">&#171;RB&#187;</text></g><!--entity protect_route--><g class="entity" data-entity="protect_route" data-source-line="20" data-uid="ent0014" id="entity_protect_route"><ellipse cx="392.0037" cy="385.0247" fill="#F1F1F1" rx="12" ry="12" style="stroke:#181818;stroke-width:0.5;"/><polygon fill="#181818" points="388.0037,373.0247,394.0037,368.0247,392.0037,373.0247,394.0037,378.0247,388.0037,373.0247" style="stroke:#181818;stroke-width:1;"/><text fill="#000000" font-family="sans-serif" font-size="11" lengthAdjust="spacing" textLength="74.481" x="354.7632" y="411.2351">protect_route</text><text fill="#000000" font-family="sans-serif" font-size="11" font-style="italic" lengthAdjust="spacing" textLength="78.0474" x="352.98" y="366.4304">&#171;middleware&#187;</text></g><!--entity Publication--><g class="entity" data-entity="Publication" data-source-line="21" data-uid="ent0015" id="entity_Publication"><ellipse cx="296.9995" cy="624.2447" fill="#F1F1F1" rx="12" ry="12" style="stroke:#181818;stroke-width:0.5;"/><line style="stroke:#181818;stroke-width:0.5;" x1="284.9995" x2="308.9995" y1="638.2447" y2="638.2447"/><text fill="#000000" font-family="sans-serif" font-size="11" lengthAdjust="spacing" textLength="60.5591" x="266.72" y="650.4551">Publication</text><text fill="#000000" font-family="sans-serif" font-size="11" font-style="italic" lengthAdjust="spacing" textLength="28.6494" x="282.6748" y="605.6504">&#171;RB&#187;</text></g><!--entity PublicationHtml--><g class="entity" data-entity="PublicationHtml" data-source-line="24" data-uid="ent0017" id="entity_PublicationHtml"><path d="M160.5041,373.0247 L160.5041,397.0247 M160.5041,385.0247 L177.5041,385.0247" fill="none" style="stroke:#181818;stroke-width:0.5;"/><ellipse cx="189.5041" cy="385.0247" fill="#F1F1F1" rx="12" ry="12" style="stroke:#181818;stroke-width:0.5;"/><text fill="#000000" font-family="sans-serif" font-size="11" lengthAdjust="spacing" textLength="60.9082" x="150.55" y="411.2351">publication</text><text fill="#000000" font-family="sans-serif" font-size="11" font-style="italic" lengthAdjust="spacing" textLength="44.0698" x="158.9692" y="366.4304">&#171;HTML&#187;</text></g><!--entity outputCss--><g class="entity" data-entity="outputCss" data-source-line="25" data-uid="ent0018" id="entity_outputCss"><path d="M60.5,491.6347 L60.5,515.6347 M60.5,503.6347 L77.5,503.6347" fill="none" style="stroke:#181818;stroke-width:0.5;"/><ellipse cx="89.5" cy="503.6347" fill="#F1F1F1" rx="12" ry="12" style="stroke:#181818;stroke-width:0.5;"/><text fill="#000000" font-family="sans-serif" font-size="11" lengthAdjust="spacing" textLength="43.1729" x="59.4136" y="529.8451">tailwind</text><text fill="#000000" font-family="sans-serif" font-size="11" font-style="italic" lengthAdjust="spacing" textLength="35.1055" x="63.4473" y="485.0404">&#171;CSS&#187;</text></g><!--entity script--><g class="entity" data-entity="script" data-source-line="26" data-uid="ent0019" id="entity_script"><ellipse cx="175.9998" cy="503.6347" fill="#F1F1F1" rx="12" ry="12" style="stroke:#181818;stroke-width:0.5;"/><polygon fill="#181818" points="171.9998,491.6347,177.9998,486.6347,175.9998,491.6347,177.9998,496.6347,171.9998,491.6347" style="stroke:#181818;stroke-width:1;"/><text fill="#000000" font-family="sans-serif" font-size="11" lengthAdjust="spacing" textLength="30.6528" x="160.6734" y="529.8451">script</text><text fill="#000000" font-family="sans-serif" font-size="11" font-style="italic" lengthAdjust="spacing" textLength="68.5996" x="141.7" y="485.0404">&#171;JavaScript&#187;</text></g><!--link PublicationDetailViewAnalysis to CreatePublicationControllerAnalysis--><g class="link" data-entity-1="PublicationDetailViewAnalysis" data-entity-2="CreatePublicationControllerAnalysis" data-source-line="10" data-uid="lnk6" id="link_PublicationDetailViewAnalysis_CreatePublicationControllerAnalysis"><path d="M576.6,95.04 C579.59,113.37 582.4946,131.2482 585.4746,149.5282" fill="none" id="PublicationDetailViewAnalysis-to-CreatePublicationControllerAnalysis" style="stroke:#181818;stroke-width:1;"/><polygon fill="#181818" points="586.44,155.45,588.9398,145.9237,585.6355,150.5151,581.0441,147.2108,586.44,155.45" style="stroke:#181818;stroke-width:1;"/></g><!--link CreatePublicationControllerAnalysis to PublicationAnalysis--><g class="link" data-entity-1="CreatePublicationControllerAnalysis" data-entity-2="PublicationAnalysis" data-source-line="11" data-uid="lnk7" id="link_CreatePublicationControllerAnalysis_PublicationAnalysis"><path d="M593.68,213.45 C597.51,253.44 603.8778,320.0573 607.3478,356.2773" fill="none" id="CreatePublicationControllerAnalysis-to-PublicationAnalysis" style="stroke:#181818;stroke-width:1;"/><polygon fill="#181818" points="607.92,362.25,611.0435,352.9096,607.4432,357.2728,603.0799,353.6725,607.92,362.25" style="stroke:#181818;stroke-width:1;"/></g><!--link PublicationHtml to outputCss--><g class="link" data-entity-1="PublicationHtml" data-entity-2="outputCss" data-source-line="29" data-uid="lnk20" id="link_PublicationHtml_outputCss"><path d="M156.79,414.26 C141.07,432.59 124.5664,451.8359 108.8864,470.1159" fill="none" id="PublicationHtml-to-outputCss" style="stroke:#181818;stroke-width:1;"/><polygon fill="#181818" points="104.98,474.67,113.8757,470.4431,108.2353,470.8749,107.8035,465.2345,104.98,474.67" style="stroke:#181818;stroke-width:1;"/></g><!--link PublicationHtml to script--><g class="link" data-entity-1="PublicationHtml" data-entity-2="script" data-source-line="30" data-uid="lnk21" id="link_PublicationHtml_script"><path d="M179.79,414.26 C179,432.59 178.2358,450.3955 177.4558,468.6755" fill="none" id="PublicationHtml-to-script" style="stroke:#181818;stroke-width:1;"/><polygon fill="#181818" points="177.2,474.67,181.58,465.8487,177.4132,469.6745,173.5873,465.5077,177.2,474.67" style="stroke:#181818;stroke-width:1;"/></g><!--link PublicationHtml to Router--><g class="link" data-entity-1="PublicationHtml" data-entity-2="Router" data-source-line="31" data-uid="lnk22" id="link_PublicationHtml_Router"><path d="M211.79,385.03 C230.06,385.03 242.34,385.03 260.62,385.03" fill="none" id="PublicationHtml-to-Router" style="stroke:#181818;stroke-width:1;stroke-dasharray:7,7;"/><polygon fill="#181818" points="266.62,385.03,257.62,381.03,261.62,385.03,257.62,389.03,266.62,385.03" style="stroke:#181818;stroke-width:1;"/></g><!--link Router to protect_route--><g class="link" data-entity-1="Router" data-entity-2="protect_route" data-source-line="32" data-uid="lnk23" id="link_Router_protect_route"><path d="M317.39,385.03 C328.76,385.03 334.12,385.03 345.49,385.03" fill="none" id="Router-to-protect_route" style="stroke:#181818;stroke-width:1;"/><polygon fill="#181818" points="351.49,385.03,342.49,381.03,346.49,385.03,342.49,389.03,351.49,385.03" style="stroke:#181818;stroke-width:1;"/></g><!--link Router to PublicationController--><g class="link" data-entity-1="Router" data-entity-2="PublicationController" data-source-line="33" data-uid="lnk24" id="link_Router_PublicationController"><path d="M308.7,414.26 C319.55,432.59 330.5738,451.2267 341.3938,469.5067" fill="none" id="Router-to-PublicationController" style="stroke:#181818;stroke-width:1;"/><polygon fill="#181818" points="344.45,474.67,343.3079,464.8876,341.9032,470.3672,336.4235,468.9625,344.45,474.67" style="stroke:#181818;stroke-width:1;"/></g><!--link PublicationController to PublicationDetailView--><g class="link" data-entity-1="PublicationController" data-entity-2="PublicationDetailView" data-source-line="34" data-uid="lnk25" id="link_PublicationController_PublicationDetailView"><path d="M370.95,532.75 C377.65,551.65 384.4377,570.8139 391.1177,589.6839" fill="none" id="PublicationController-to-PublicationDetailView" style="stroke:#181818;stroke-width:1;"/><polygon fill="#181818" points="393.12,595.34,393.8873,585.5211,391.4515,590.6266,386.3459,588.1907,393.12,595.34" style="stroke:#181818;stroke-width:1;"/></g><!--link PublicationController to Publication--><g class="link" data-entity-1="PublicationController" data-entity-2="Publication" data-source-line="35" data-uid="lnk26" id="link_PublicationController_Publication"><path d="M345.83,532.75 C335.63,551.65 325.0888,571.1894 314.9088,590.0594" fill="none" id="PublicationController-to-Publication" style="stroke:#181818;stroke-width:1;"/><polygon fill="#181818" points="312.06,595.34,319.8535,589.3183,314.434,590.9395,312.8128,585.52,312.06,595.34" style="stroke:#181818;stroke-width:1;"/></g><!--link PublicationDetailView to mainLayoutProfileView--><g class="link" data-entity-1="PublicationDetailView" data-entity-2="mainLayoutProfileView" data-source-line="36" data-uid="lnk27" id="link_PublicationDetailView_mainLayoutProfileView"><path d="M401.92,653.37 C401.08,675.11 400.1518,699.0645 399.3118,720.7945" fill="none" id="PublicationDetailView-to-mainLayoutProfileView" style="stroke:#181818;stroke-width:1;"/><polygon fill="#181818" points="399.08,726.79,403.4247,717.9512,399.2731,721.7937,395.4306,717.6422,399.08,726.79" style="stroke:#181818;stroke-width:1;"/><text fill="#000000" font-family="sans-serif" font-size="11" lengthAdjust="spacing" textLength="44.043" x="401" y="694.2604">extends</text></g><!--link PublicationDetailViewAnalysis to PublicationHtml--><g class="link" data-entity-1="PublicationDetailViewAnalysis" data-entity-2="PublicationHtml" data-source-line="41" data-uid="lnk28" id="link_PublicationDetailViewAnalysis_PublicationHtml"><path d="M541.23,79.69 C479.84,106.59 340.37,173.93 251,265.22 C224.96,291.82 207.2371,324.4889 195.3571,350.3189" fill="none" id="PublicationDetailViewAnalysis-to-PublicationHtml" style="stroke:#008000;stroke-width:1;stroke-dasharray:7,7;"/><polygon fill="#008000" points="192.85,355.77,200.2447,349.2648,194.9393,351.2274,192.9766,345.922,192.85,355.77" style="stroke:#008000;stroke-width:1;"/><text fill="#008000" font-family="sans-serif" font-size="11" lengthAdjust="spacing" textLength="41.8516" x="394" y="188.6304">&#171;trace&#187;</text></g><!--link PublicationDetailViewAnalysis to script--><g class="link" data-entity-1="PublicationDetailViewAnalysis" data-entity-2="script" data-source-line="42" data-uid="lnk29" id="link_PublicationDetailViewAnalysis_script"><path d="M541.48,68.88 C456.25,76.58 216.45,111.63 133,265.22 C97.73,330.13 113.18,360.27 133,431.43 C137.26,446.73 142.4617,457.0445 150.8117,469.5145" fill="none" id="PublicationDetailViewAnalysis-to-script" style="stroke:#008000;stroke-width:1;stroke-dasharray:7,7;"/><polygon fill="#008000" points="154.15,474.5,152.4662,464.7961,151.368,470.3454,145.8188,469.2473,154.15,474.5" style="stroke:#008000;stroke-width:1;"/><text fill="#008000" font-family="sans-serif" font-size="11" lengthAdjust="spacing" textLength="41.8516" x="146" y="254.4304">&#171;trace&#187;</text></g><!--link PublicationDetailViewAnalysis to outputCss--><g class="link" data-entity-1="PublicationDetailViewAnalysis" data-entity-2="outputCss" data-source-line="43" data-uid="lnk30" id="link_PublicationDetailViewAnalysis_outputCss"><path d="M541.3,67.08 C470.09,69.01 290.23,81.44 165,155.61 C119.89,182.33 105.28,194.47 86,243.22 C54.78,322.19 65.8022,419.5987 74.3222,468.5987" fill="none" id="PublicationDetailViewAnalysis-to-outputCss" style="stroke:#008000;stroke-width:1;stroke-dasharray:7,7;"/><polygon fill="#008000" points="75.35,474.51,77.7491,464.9578,74.4935,469.5839,69.8674,466.3283,75.35,474.51" style="stroke:#008000;stroke-width:1;"/><text fill="#008000" font-family="sans-serif" font-size="11" lengthAdjust="spacing" textLength="41.8516" x="87" y="254.4304">&#171;trace&#187;</text></g><!--link PublicationDetailViewAnalysis to PublicationDetailView--><g class="link" data-entity-1="PublicationDetailViewAnalysis" data-entity-2="PublicationDetailView" data-source-line="44" data-uid="lnk31" id="link_PublicationDetailViewAnalysis_PublicationDetailView"><path d="M602.63,77.14 C643.28,93.02 710,127.59 710,183.42 C710,183.42 710,183.42 710,504.64 C710,560.99 533.6414,599.8365 449.9814,615.1965" fill="none" id="PublicationDetailViewAnalysis-to-PublicationDetailView" style="stroke:#008000;stroke-width:1;stroke-dasharray:7,7;"/><polygon fill="#008000" points="444.08,616.28,453.6544,618.589,448.9978,615.3771,452.2097,610.7205,444.08,616.28" style="stroke:#008000;stroke-width:1;"/><text fill="#008000" font-family="sans-serif" font-size="11" lengthAdjust="spacing" textLength="41.8516" x="711" y="389.2404">&#171;trace&#187;</text></g><!--link CreatePublicationControllerAnalysis to Router--><g class="link" data-entity-1="CreatePublicationControllerAnalysis" data-entity-2="Router" data-source-line="46" data-uid="lnk32" id="link_CreatePublicationControllerAnalysis_Router"><path d="M541.95,185.63 C482.84,188.75 385.11,203.67 334,265.22 C312.2,291.48 302.5323,323.9637 297.4023,349.9437" fill="none" id="CreatePublicationControllerAnalysis-to-Router" style="stroke:#FF7F50;stroke-width:1;stroke-dasharray:7,7;"/><polygon fill="#FF7F50" points="296.24,355.83,301.9077,347.7754,297.2086,350.9247,294.0592,346.2256,296.24,355.83" style="stroke:#FF7F50;stroke-width:1;"/><text fill="#FF7F50" font-family="sans-serif" font-size="11" lengthAdjust="spacing" textLength="41.8516" x="355" y="254.4304">&#171;trace&#187;</text></g><!--link CreatePublicationControllerAnalysis to PublicationController--><g class="link" data-entity-1="CreatePublicationControllerAnalysis" data-entity-2="PublicationController" data-source-line="47" data-uid="lnk33" id="link_CreatePublicationControllerAnalysis_PublicationController"><path d="M561.4,213.4 C547.26,227.89 530.87,246.45 519,265.22 C476.26,332.83 498.07,367.5 450,431.43 C437.63,447.88 425.4276,459.1202 409.5976,470.9402" fill="none" id="CreatePublicationControllerAnalysis-to-PublicationController" style="stroke:#FF7F50;stroke-width:1;stroke-dasharray:7,7;"/><polygon fill="#FF7F50" points="404.79,474.53,414.3947,472.3504,408.7964,471.5385,409.6083,465.9402,404.79,474.53" style="stroke:#FF7F50;stroke-width:1;"/><text fill="#FF7F50" font-family="sans-serif" font-size="11" lengthAdjust="spacing" textLength="41.8516" x="520" y="389.2404">&#171;trace&#187;</text></g><!--link CreatePublicationControllerAnalysis to protect_route--><g class="link" data-entity-1="CreatePublicationControllerAnalysis" data-entity-2="protect_route" data-source-line="48" data-uid="lnk34" id="link_CreatePublicationControllerAnalysis_protect_route"><path d="M542.13,191.5 C507.16,198.35 461.42,212.82 433,243.22 C404.05,274.19 395.8989,318.4591 393.3889,349.8091" fill="none" id="CreatePublicationControllerAnalysis-to-protect_route" style="stroke:#FF7F50;stroke-width:1;stroke-dasharray:7,7;"/><polygon fill="#FF7F50" points="392.91,355.79,397.6155,347.1379,393.309,350.8059,389.641,346.4995,392.91,355.79" style="stroke:#FF7F50;stroke-width:1;"/><text fill="#FF7F50" font-family="sans-serif" font-size="11" lengthAdjust="spacing" textLength="41.8516" x="434" y="254.4304">&#171;trace&#187;</text></g><!--link PublicationAnalysis to Publication--><g class="link" data-entity-1="PublicationAnalysis" data-entity-2="Publication" data-source-line="52" data-uid="lnk35" id="link_PublicationAnalysis_Publication"><path d="M593.29,407.74 C564.99,443.2 504.31,513.87 439,556.44 C401.11,581.14 385.55,575.4 345,595.44 C339.3,598.26 338.5718,598.5149 332.8818,601.7349" fill="none" id="PublicationAnalysis-to-Publication" style="stroke:#3CDFFF;stroke-width:1;stroke-dasharray:7,7;"/><polygon fill="#3CDFFF" points="327.66,604.69,337.4628,603.7386,332.0115,602.2274,333.5227,596.7762,327.66,604.69" style="stroke:#3CDFFF;stroke-width:1;"/><text fill="#3CDFFF" font-family="sans-serif" font-size="11" lengthAdjust="spacing" textLength="41.8516" x="534" y="507.8504">&#171;trace&#187;</text></g><!--SRC=[jPLHQzim4CVV_Ib4-j2dU8G-388dw59A6HsKfEnbAqMnpwceB1b9NfQDVlT9icD7ZXmSQFFWOD__VdU-_qLHhvINH982ARrZOAwIfhegMAJQI0OvgPX-X3_wcj4DBu1hb9eBo6FLhU1wHVy2cisYg2JfAza0kkQ4xHHL_o9aFcjHyOp87PeyL6j6KwAfuB_u3MX2sGyAsmaY2Xt4kiWUv3Yc0wfzIZ_JqwUcDIaOcYma40rUyKKTOo0TuaZHnLkaOvxi4asdU1JAaaRe72_qTc_Tg6z06OlgGU-VhSqty0mboT9qgEQVurbyXN4jyXrv4GN4BxfWCSZri0y6XVOgX740nCXELDf75OJoU_VyGOgSCZY5QjqwQ43rR0fEomANNuCeQKg3YfjsblRkXBoKGaEgdrsMbHKqonXiYOH3URE61xtuo3VFYrmQkZKZDFroU9Flp8Wiz-xn-truujQRBUMPopGjbvLUA6Lp5gjLwFrKAccfhU0R-KrMzLtRT7-zNGFJp6nWonwMrEXWF9OnRaRlueqB9icRjnVB_BtllEvNEDY2VbAtl6Sa3V_6Qsbme-V8d9J6OdD4c35UQabIY4uV5F7FYuq4u4ynFXhO72Mvi2UkO49-SJAS98wASVB9nl0P-CRrTwPs-_REuF3mHnM9nXoffbOg965FxLRsu2vw33-N7Twt3odbdrkZIboYSujK9HCaMr6-OHzM8xYg0_GeyBzeOLTfbkTvpu4UijOSCVy3]--></g></svg>