<svg xmlns="http://www.w3.org/2000/svg" xmlns:xlink="http://www.w3.org/1999/xlink" contentStyleType="text/css" data-diagram-type="DESCRIPTION" height="779px" preserveAspectRatio="none" style="width:828px;height:779px;background:#FFFFFF;" version="1.1" viewBox="0 0 828 779" width="828px" zoomAndPan="magnify"><defs/><g><!--cluster Analysis--><g class="cluster" data-entity="Analysis" data-source-line="5" data-uid="ent0002" id="cluster_Analysis"><polygon fill="none" points="16,6,73.5732,6,80.5732,24.8047,146,24.8047,146,466.23,16,466.23,16,6" style="stroke:#000000;stroke-width:1.5;"/><line style="stroke:#000000;stroke-width:1.5;" x1="16" x2="80.5732" y1="24.8047" y2="24.8047"/><text fill="#000000" font-family="sans-serif" font-size="11" font-weight="bold" lengthAdjust="spacing" textLength="51.5732" x="20" y="18.2104">Analysis</text></g><!--cluster Design--><g class="cluster" data-entity="Design" data-source-line="14" data-uid="ent0008" id="cluster_Design"><polygon fill="none" points="170,154.61,218.6143,154.61,225.6143,173.4147,738,173.4147,738,772.66,170,772.66,170,154.61" style="stroke:#000000;stroke-width:1.5;"/><line style="stroke:#000000;stroke-width:1.5;" x1="170" x2="225.6143" y1="173.4147" y2="173.4147"/><text fill="#000000" font-family="sans-serif" font-size="11" font-weight="bold" lengthAdjust="spacing" textLength="42.6143" x="174" y="166.8204">Design</text></g><!--cluster backend--><g class="cluster" data-entity="backend" data-source-line="15" data-uid="ent0009" id="cluster_backend"><polygon fill="none" points="194,342.22,252.2983,342.22,259.2983,361.0247,495,361.0247,495,748.66,194,748.66,194,342.22" style="stroke:#000000;stroke-width:1.5;"/><line style="stroke:#000000;stroke-width:1.5;" x1="194" x2="259.2983" y1="361.0247" y2="361.0247"/><text fill="#000000" font-family="sans-serif" font-size="11" font-weight="bold" lengthAdjust="spacing" textLength="52.2983" x="198" y="354.4304">backend</text><text fill="#000000" font-family="sans-serif" font-size="11" font-style="italic" lengthAdjust="spacing" textLength="134.8843" x="281.0579" y="373.2351">&#171;ASP.NET Core:8.0.401&#187;</text></g><!--cluster frontend--><g class="cluster" data-entity="frontend" data-source-line="23" data-uid="ent0015" id="cluster_frontend"><polygon fill="none" points="519,193.61,579.0225,193.61,586.0225,212.4147,714,212.4147,714,472.64,519,472.64,519,193.61" style="stroke:#000000;stroke-width:1.5;"/><line style="stroke:#000000;stroke-width:1.5;" x1="519" x2="586.0225" y1="212.4147" y2="212.4147"/><text fill="#000000" font-family="sans-serif" font-size="11" font-weight="bold" lengthAdjust="spacing" textLength="54.0225" x="523" y="205.8204">frontend</text></g><!--entity PublicationDetailViewAnalysis--><g class="entity" data-entity="PublicationDetailViewAnalysis" data-source-line="6" data-uid="ent0003" id="entity_PublicationDetailViewAnalysis"><path d="M79.4995,41 L79.4995,65 M79.4995,53 L96.4995,53" fill="none" style="stroke:#181818;stroke-width:0.5;"/><ellipse cx="108.4995" cy="53" fill="#F1F1F1" rx="12" ry="12" style="stroke:#181818;stroke-width:0.5;"/><text fill="#000000" font-family="sans-serif" font-size="11" lengthAdjust="spacing" textLength="60.5591" x="69.72" y="79.2104">Publication</text><text fill="#000000" font-family="sans-serif" font-size="11" lengthAdjust="spacing" textLength="58.749" x="70.625" y="92.0151">DetailView</text></g><!--entity PublicationAnalysis--><g class="entity" data-entity="PublicationAnalysis" data-source-line="7" data-uid="ent0004" id="entity_PublicationAnalysis"><ellipse cx="99.9995" cy="421.43" fill="#F1F1F1" rx="12" ry="12" style="stroke:#181818;stroke-width:0.5;"/><line style="stroke:#181818;stroke-width:0.5;" x1="87.9995" x2="111.9995" y1="435.43" y2="435.43"/><text fill="#000000" font-family="sans-serif" font-size="11" lengthAdjust="spacing" textLength="60.5591" x="69.72" y="447.6404">Publication</text></g><!--entity CreatePublicationControllerAnalysis--><g class="entity" data-entity="CreatePublicationControllerAnalysis" data-source-line="8" data-uid="ent0005" id="entity_CreatePublicationControllerAnalysis"><ellipse cx="80.9955" cy="240.61" fill="#F1F1F1" rx="12" ry="12" style="stroke:#181818;stroke-width:0.5;"/><polygon fill="#181818" points="76.9955,228.61,82.9955,223.61,80.9955,228.61,82.9955,233.61,76.9955,228.61" style="stroke:#181818;stroke-width:1;"/><text fill="#000000" font-family="sans-serif" font-size="11" lengthAdjust="spacing" textLength="97.3511" x="32.32" y="266.8204">CreatePublication</text><text fill="#000000" font-family="sans-serif" font-size="11" lengthAdjust="spacing" textLength="54.3501" x="53.8205" y="279.6251">Controller</text></g><!--entity PublicationDetailView--><g class="entity" data-entity="PublicationDetailView" data-source-line="16" data-uid="ent0010" id="entity_PublicationDetailView"><path d="M419.5018,560.2447 L419.5018,584.2447 M419.5018,572.2447 L436.5018,572.2447" fill="none" style="stroke:#181818;stroke-width:0.5;"/><ellipse cx="448.5018" cy="572.2447" fill="#F1F1F1" rx="12" ry="12" style="stroke:#181818;stroke-width:0.5;"/><text fill="#000000" font-family="sans-serif" font-size="11" lengthAdjust="spacing" textLength="77.1235" x="401.44" y="598.4551">Create.cshtml</text><text fill="#000000" font-family="sans-serif" font-size="11" font-style="italic" lengthAdjust="spacing" textLength="71.2153" x="404.3941" y="553.6504">&#171;RazorView&#187;</text></g><!--entity mainLayoutProfileView--><g class="entity" data-entity="mainLayoutProfileView" data-source-line="17" data-uid="ent0011" id="entity_mainLayoutProfileView"><path d="M412.5025,691.8547 L412.5025,715.8547 M412.5025,703.8547 L429.5025,703.8547" fill="none" style="stroke:#181818;stroke-width:0.5;"/><ellipse cx="441.5025" cy="703.8547" fill="#F1F1F1" rx="12" ry="12" style="stroke:#181818;stroke-width:0.5;"/><text fill="#000000" font-family="sans-serif" font-size="11" lengthAdjust="spacing" textLength="83.2251" x="391.39" y="730.0651">_Layout.cshtml</text><text fill="#000000" font-family="sans-serif" font-size="11" font-style="italic" lengthAdjust="spacing" textLength="71.2153" x="397.3949" y="685.2604">&#171;RazorView&#187;</text></g><!--entity CreatePublicationController--><g class="entity" data-entity="CreatePublicationController" data-source-line="18" data-uid="ent0012" id="entity_CreatePublicationController"><ellipse cx="388.0046" cy="415.0247" fill="#F1F1F1" rx="12" ry="12" style="stroke:#181818;stroke-width:0.5;"/><polygon fill="#181818" points="384.0046,403.0247,390.0046,398.0247,388.0046,403.0247,390.0046,408.0247,384.0046,403.0247" style="stroke:#181818;stroke-width:1;"/><text fill="#000000" font-family="sans-serif" font-size="11" lengthAdjust="spacing" textLength="114.9092" x="330.55" y="441.2351">PublicationController</text><text fill="#000000" font-family="sans-serif" font-size="11" lengthAdjust="spacing" textLength="55.8701" x="360.0695" y="454.0398">[HttpPost]</text><text fill="#000000" font-family="sans-serif" font-size="11" lengthAdjust="spacing" textLength="36.792" x="369.6086" y="466.8445">Create</text><text fill="#000000" font-family="sans-serif" font-size="11" font-style="italic" lengthAdjust="spacing" textLength="30.3574" x="372.8259" y="396.4304">&#171;C#&#187;</text></g><!--entity CreatePublicationViewModel--><g class="entity" data-entity="CreatePublicationViewModel" data-source-line="19" data-uid="ent0013" id="entity_CreatePublicationViewModel"><ellipse cx="288.0016" cy="572.2447" fill="#F1F1F1" rx="12" ry="12" style="stroke:#181818;stroke-width:0.5;"/><line style="stroke:#181818;stroke-width:0.5;" x1="276.0016" x2="300.0016" y1="586.2447" y2="586.2447"/><text fill="#000000" font-family="sans-serif" font-size="11" lengthAdjust="spacing" textLength="156.7231" x="209.64" y="598.4551">CreatePublicationViewModel</text><text fill="#000000" font-family="sans-serif" font-size="11" font-style="italic" lengthAdjust="spacing" textLength="30.3574" x="272.8229" y="553.6504">&#171;C#&#187;</text></g><!--entity Publication--><g class="entity" data-entity="Publication" data-source-line="20" data-uid="ent0014" id="entity_Publication"><ellipse cx="251.9995" cy="703.8547" fill="#F1F1F1" rx="12" ry="12" style="stroke:#181818;stroke-width:0.5;"/><line style="stroke:#181818;stroke-width:0.5;" x1="239.9995" x2="263.9995" y1="717.8547" y2="717.8547"/><text fill="#000000" font-family="sans-serif" font-size="11" lengthAdjust="spacing" textLength="60.5591" x="221.72" y="730.0651">Publication</text><text fill="#000000" font-family="sans-serif" font-size="11" font-style="italic" lengthAdjust="spacing" textLength="30.3574" x="236.8208" y="685.2604">&#171;C#&#187;</text></g><!--entity PublicationHtml--><g class="entity" data-entity="PublicationHtml" data-source-line="24" data-uid="ent0016" id="entity_PublicationHtml"><path d="M563.4955,241.4147 L563.4955,265.4147 M563.4955,253.4147 L580.4955,253.4147" fill="none" style="stroke:#181818;stroke-width:0.5;"/><ellipse cx="592.4955" cy="253.4147" fill="#F1F1F1" rx="12" ry="12" style="stroke:#181818;stroke-width:0.5;"/><text fill="#000000" font-family="sans-serif" font-size="11" lengthAdjust="spacing" textLength="97.3511" x="535.32" y="279.6251">CreatePublication</text><text fill="#000000" font-family="sans-serif" font-size="11" font-style="italic" lengthAdjust="spacing" textLength="44.0698" x="561.9606" y="234.8204">&#171;HTML&#187;</text></g><!--entity outputCss--><g class="entity" data-entity="outputCss" data-source-line="25" data-uid="ent0017" id="entity_outputCss"><path d="M652.5,415.8347 L652.5,439.8347 M652.5,427.8347 L669.5,427.8347" fill="none" style="stroke:#181818;stroke-width:0.5;"/><ellipse cx="681.5" cy="427.8347" fill="#F1F1F1" rx="12" ry="12" style="stroke:#181818;stroke-width:0.5;"/><text fill="#000000" font-family="sans-serif" font-size="11" lengthAdjust="spacing" textLength="42.8774" x="651.5613" y="454.0451">site_css</text><text fill="#000000" font-family="sans-serif" font-size="11" font-style="italic" lengthAdjust="spacing" textLength="35.1055" x="655.4473" y="409.2404">&#171;CSS&#187;</text></g><!--entity previewImage--><g class="entity" data-entity="previewImage" data-source-line="26" data-uid="ent0018" id="entity_previewImage"><ellipse cx="573.9964" cy="427.8347" fill="#F1F1F1" rx="12" ry="12" style="stroke:#181818;stroke-width:0.5;"/><polygon fill="#181818" points="569.9964,415.8347,575.9964,410.8347,573.9964,415.8347,575.9964,420.8347,569.9964,415.8347" style="stroke:#181818;stroke-width:1;"/><text fill="#000000" font-family="sans-serif" font-size="11" lengthAdjust="spacing" textLength="78.0527" x="534.97" y="454.0451">previewImage</text><text fill="#000000" font-family="sans-serif" font-size="11" font-style="italic" lengthAdjust="spacing" textLength="68.5996" x="539.6966" y="409.2404">&#171;JavaScript&#187;</text></g><!--link PublicationDetailViewAnalysis to CreatePublicationControllerAnalysis--><g class="link" data-entity-1="PublicationDetailViewAnalysis" data-entity-2="CreatePublicationControllerAnalysis" data-source-line="10" data-uid="lnk6" id="link_PublicationDetailViewAnalysis_CreatePublicationControllerAnalysis"><path d="M97.11,95 C93.53,129.99 88.071,183.3312 84.491,218.3012" fill="none" id="PublicationDetailViewAnalysis-to-CreatePublicationControllerAnalysis" style="stroke:#181818;stroke-width:1;"/><polygon fill="#181818" points="83.88,224.27,88.7758,215.7242,84.3892,219.296,80.8174,214.9094,83.88,224.27" style="stroke:#181818;stroke-width:1;"/></g><!--link CreatePublicationControllerAnalysis to PublicationAnalysis--><g class="link" data-entity-1="CreatePublicationControllerAnalysis" data-entity-2="PublicationAnalysis" data-source-line="11" data-uid="lnk7" id="link_CreatePublicationControllerAnalysis_PublicationAnalysis"><path d="M84.09,282.5 C87.87,316.76 93.5127,367.9661 96.9427,399.0861" fill="none" id="CreatePublicationControllerAnalysis-to-PublicationAnalysis" style="stroke:#181818;stroke-width:1;"/><polygon fill="#181818" points="97.6,405.05,100.5899,395.666,97.0522,400.0801,92.6381,396.5424,97.6,405.05" style="stroke:#181818;stroke-width:1;"/></g><!--link PublicationHtml to outputCss--><g class="link" data-entity-1="PublicationHtml" data-entity-2="outputCss" data-source-line="29" data-uid="lnk19" id="link_PublicationHtml_outputCss"><path d="M601.5,282.44 C610.68,297.56 621.88,316.67 631,334.22 C642.07,355.53 650.8486,374.8328 658.8786,393.4028" fill="none" id="PublicationHtml-to-outputCss" style="stroke:#181818;stroke-width:1;"/><polygon fill="#181818" points="661.26,398.91,661.3593,389.0616,659.2755,394.3207,654.0165,392.2368,661.26,398.91" style="stroke:#181818;stroke-width:1;"/></g><!--reverse link PublicationHtml to previewImage--><g class="link" data-entity-1="PublicationHtml" data-entity-2="previewImage" data-source-line="30" data-uid="lnk20" id="link_PublicationHtml_previewImage"><path d="M581.675,294.4799 C579.815,326.5399 577.49,366.7 575.63,398.76" fill="none" id="PublicationHtml-backto-previewImage" style="stroke:#181818;stroke-width:1;"/><polygon fill="#181818" points="582.37,282.5,578.0292,288.2583,581.675,294.4799,586.0158,288.7216,582.37,282.5" style="stroke:#181818;stroke-width:1;"/></g><!--link PublicationHtml to CreatePublicationController--><g class="link" data-entity-1="PublicationHtml" data-entity-2="CreatePublicationController" data-source-line="31" data-uid="lnk21" id="link_PublicationHtml_CreatePublicationController"><path d="M552.07,282.5 C520.18,310.56 475.3254,350.0175 439.0654,381.9075" fill="none" id="PublicationHtml-to-CreatePublicationController" style="stroke:#181818;stroke-width:1;stroke-dasharray:7,7;"/><polygon fill="#181818" points="434.56,385.87,443.9598,382.93,438.3145,382.568,438.6765,376.9227,434.56,385.87" style="stroke:#181818;stroke-width:1;"/></g><!--link CreatePublicationController to PublicationDetailView--><g class="link" data-entity-1="CreatePublicationController" data-entity-2="PublicationDetailView" data-source-line="32" data-uid="lnk22" id="link_CreatePublicationController_PublicationDetailView"><path d="M402.9,469.64 C411.48,493.15 419.9913,516.4642 427.6513,537.4342" fill="none" id="CreatePublicationController-to-PublicationDetailView" style="stroke:#181818;stroke-width:1;"/><polygon fill="#181818" points="429.71,543.07,430.3792,533.2439,427.9945,538.3735,422.8648,535.9888,429.71,543.07" style="stroke:#181818;stroke-width:1;"/></g><!--link PublicationDetailView to mainLayoutProfileView--><g class="link" data-entity-1="PublicationDetailView" data-entity-2="mainLayoutProfileView" data-source-line="33" data-uid="lnk23" id="link_PublicationDetailView_mainLayoutProfileView"><path d="M438.48,601.37 C437.31,623.11 436.0126,647.0687 434.8426,668.7987" fill="none" id="PublicationDetailView-to-mainLayoutProfileView" style="stroke:#181818;stroke-width:1;"/><polygon fill="#181818" points="434.52,674.79,438.9981,666.0181,434.7888,669.7972,431.0097,665.588,434.52,674.79" style="stroke:#181818;stroke-width:1;"/><text fill="#000000" font-family="sans-serif" font-size="11" lengthAdjust="spacing" textLength="44.043" x="437" y="642.2604">extends</text></g><!--link CreatePublicationController to CreatePublicationViewModel--><g class="link" data-entity-1="CreatePublicationController" data-entity-2="CreatePublicationViewModel" data-source-line="35" data-uid="lnk24" id="link_CreatePublicationController_CreatePublicationViewModel"><path d="M359.34,469.64 C342.84,493.15 325.9588,517.1902 311.2288,538.1602" fill="none" id="CreatePublicationController-to-CreatePublicationViewModel" style="stroke:#181818;stroke-width:1;"/><polygon fill="#181818" points="307.78,543.07,316.2264,538.0045,310.654,538.9785,309.68,533.4061,307.78,543.07" style="stroke:#181818;stroke-width:1;"/></g><!--link CreatePublicationViewModel to Publication--><g class="link" data-entity-1="CreatePublicationViewModel" data-entity-2="Publication" data-source-line="36" data-uid="lnk25" id="link_CreatePublicationViewModel_Publication"><path d="M280.19,601.37 C274.15,623.11 267.4344,647.2785 261.4044,669.0085" fill="none" id="CreatePublicationViewModel-to-Publication" style="stroke:#181818;stroke-width:1;"/><polygon fill="#181818" points="259.8,674.79,266.0609,667.1873,261.137,669.9721,258.3522,665.0481,259.8,674.79" style="stroke:#181818;stroke-width:1;"/></g><!--link PublicationDetailViewAnalysis to PublicationHtml--><g class="link" data-entity-1="PublicationDetailViewAnalysis" data-entity-2="PublicationHtml" data-source-line="40" data-uid="lnk26" id="link_PublicationDetailViewAnalysis_PublicationHtml"><path d="M130.64,78.56 C212.31,109.88 430.1077,193.4018 529.5477,231.5318" fill="none" id="PublicationDetailViewAnalysis-to-PublicationHtml" style="stroke:#008000;stroke-width:1;stroke-dasharray:7,7;"/><polygon fill="#008000" points="535.15,233.68,528.1787,226.7229,530.4814,231.8899,525.3145,234.1926,535.15,233.68" style="stroke:#008000;stroke-width:1;"/><text fill="#008000" font-family="sans-serif" font-size="11" lengthAdjust="spacing" textLength="41.8516" x="285" y="135.8204">&#171;trace&#187;</text></g><!--link PublicationDetailViewAnalysis to outputCss--><g class="link" data-entity-1="PublicationDetailViewAnalysis" data-entity-2="outputCss" data-source-line="41" data-uid="lnk27" id="link_PublicationDetailViewAnalysis_outputCss"><path d="M130.5,66.48 C235.35,66.06 578.56,70.59 650,146.61 C715.35,216.16 695.7155,337.0794 682.1155,393.0994" fill="none" id="PublicationDetailViewAnalysis-to-outputCss" style="stroke:#008000;stroke-width:1;stroke-dasharray:7,7;"/><polygon fill="#008000" points="680.7,398.93,686.7104,391.1277,681.8796,394.0711,678.9362,389.2404,680.7,398.93" style="stroke:#008000;stroke-width:1;"/><text fill="#008000" font-family="sans-serif" font-size="11" lengthAdjust="spacing" textLength="41.8516" x="696" y="257.6304">&#171;trace&#187;</text></g><!--link PublicationDetailViewAnalysis to PublicationDetailView--><g class="link" data-entity-1="PublicationDetailViewAnalysis" data-entity-2="PublicationDetailView" data-source-line="42" data-uid="lnk28" id="link_PublicationDetailViewAnalysis_PublicationDetailView"><path d="M130.6,68.2 C250.09,73.96 680.24,98 714,146.61 C798.67,268.55 800.95,360.31 714,480.64 C659.71,555.77 546.7971,569.4446 485.0071,571.3546" fill="none" id="PublicationDetailViewAnalysis-to-PublicationDetailView" style="stroke:#008000;stroke-width:1;stroke-dasharray:7,7;"/><polygon fill="#008000" points="479.01,571.54,488.1293,575.26,484.0076,571.3855,487.8821,567.2638,479.01,571.54" style="stroke:#008000;stroke-width:1;"/><text fill="#008000" font-family="sans-serif" font-size="11" lengthAdjust="spacing" textLength="41.8516" x="779" y="323.4304">&#171;trace&#187;</text></g><!--link CreatePublicationControllerAnalysis to CreatePublicationController--><g class="link" data-entity-1="CreatePublicationControllerAnalysis" data-entity-2="CreatePublicationController" data-source-line="44" data-uid="lnk29" id="link_CreatePublicationControllerAnalysis_CreatePublicationController"><path d="M129.98,281.93 C184.49,312.54 267.2587,359.0217 325.0687,391.4917" fill="none" id="CreatePublicationControllerAnalysis-to-CreatePublicationController" style="stroke:#FF7F50;stroke-width:1;stroke-dasharray:7,7;"/><polygon fill="#FF7F50" points="330.3,394.43,324.4119,386.5351,325.9406,391.9815,320.4942,393.5102,330.3,394.43" style="stroke:#FF7F50;stroke-width:1;"/><text fill="#FF7F50" font-family="sans-serif" font-size="11" lengthAdjust="spacing" textLength="41.8516" x="208" y="323.4304">&#171;trace&#187;</text></g><!--link CreatePublicationControllerAnalysis to previewImage--><g class="link" data-entity-1="CreatePublicationControllerAnalysis" data-entity-2="previewImage" data-source-line="45" data-uid="lnk30" id="link_CreatePublicationControllerAnalysis_previewImage"><path d="M129.89,253.68 C211.23,254.56 377.04,265.51 495,334.22 C521.66,349.75 540.3086,372.6799 554.2386,393.8199" fill="none" id="CreatePublicationControllerAnalysis-to-previewImage" style="stroke:#FF7F50;stroke-width:1;stroke-dasharray:7,7;"/><polygon fill="#FF7F50" points="557.54,398.83,555.928,389.114,554.7889,394.6549,549.2479,393.5158,557.54,398.83" style="stroke:#FF7F50;stroke-width:1;"/><text fill="#FF7F50" font-family="sans-serif" font-size="11" lengthAdjust="spacing" textLength="41.8516" x="476" y="323.4304">&#171;trace&#187;</text></g><!--link PublicationAnalysis to CreatePublicationViewModel--><g class="link" data-entity-1="PublicationAnalysis" data-entity-2="CreatePublicationViewModel" data-source-line="47" data-uid="lnk31" id="link_PublicationAnalysis_CreatePublicationViewModel"><path d="M128.55,450.46 C161.22,475.21 210.0268,512.1877 245.9568,539.3977" fill="none" id="PublicationAnalysis-to-CreatePublicationViewModel" style="stroke:#3CDFFF;stroke-width:1;stroke-dasharray:7,7;"/><polygon fill="#3CDFFF" points="250.74,543.02,245.9801,534.3977,246.754,540.0014,241.1504,540.7753,250.74,543.02" style="stroke:#3CDFFF;stroke-width:1;"/><text fill="#3CDFFF" font-family="sans-serif" font-size="11" lengthAdjust="spacing" textLength="41.8516" x="211" y="510.6504">&#171;trace&#187;</text></g><!--link PublicationAnalysis to Publication--><g class="link" data-entity-1="PublicationAnalysis" data-entity-2="Publication" data-source-line="48" data-uid="lnk32" id="link_PublicationAnalysis_Publication"><path d="M102.58,450.63 C107.37,484.76 119.96,551.96 149,601.05 C167.69,632.64 193.909,657.5195 216.989,676.3295" fill="none" id="PublicationAnalysis-to-Publication" style="stroke:#3CDFFF;stroke-width:1;stroke-dasharray:7,7;"/><polygon fill="#3CDFFF" points="221.64,680.12,217.1905,671.3335,217.7642,676.9612,212.1365,677.5349,221.64,680.12" style="stroke:#3CDFFF;stroke-width:1;"/><text fill="#3CDFFF" font-family="sans-serif" font-size="11" lengthAdjust="spacing" textLength="41.8516" x="150" y="576.4604">&#171;trace&#187;</text></g><!--SRC=[hLHTQzim57tthn3fms0Ghs5x6C4p17SZ6-q8SzXB6ueYNsUYicGakLiw-jyhourZnxBZmVBWODzpppcw7r8FbETOuWmflMTWdf8INMJCKtKaWHGNJA_XZrumkkCPS8s8UO3iehu8hcFw16WsyxmSamUy0xJWcEqLLUYlXynlAmgUOBb7arMnPPHWJGM_urUWCMK_AVoU8AnG8tQC79WiZx50TPlbDBE59yQR50nD8WbOGqiygc8CfANe88xncj9o3hf4qsauYgfa6e6pVAxJFHzhVGNAzEYrqeUFM_CFF451i8XN_lVFQnG92VEF_gN_uN8MXXMwtPlAZq_KBvsn_euOJlG3FmbfNyBGmNH_ZVUYq4sg35DUVLr9aL86WrHruvpLkUEtIwtpbL1wOnffRPzhOYaLNJGr3iFKIIhDt8W4ZF7UfDO4jb3FNgiHgJGMoaxqLtnWcfUcV2NzSdrpxIwreXhkYL8sqrGtBtIabBKKnwwIvX8UpG6_PgKx0_k67t5C9CtroGbERKmJCukrWXForc1Q0awKxm_koBdTg8muHxD_GQiavn3EaRddJ8TUz_kiSl-ykFFhSCTukSLljCG4lE5RnR-zs4a0lf5-s2dd70MfA2zemOJyP75X45ZQC0pUbR5mBB_VwF3_9dRtPPI8D-QgD5f4ICmsm-DrecXJkeh_AjZQgb4AdkDQBodVaoHDK-SXZfFKLgXI1dlZLcW0nb6-0000]--></g></svg>