<svg xmlns="http://www.w3.org/2000/svg" xmlns:xlink="http://www.w3.org/1999/xlink" contentStyleType="text/css" height="971px" preserveAspectRatio="none" style="width:1386px;height:971px;background:#FFFFFF;" version="1.1" viewBox="0 0 1386 971" width="1386px" zoomAndPan="magnify"><defs/><g><!--cluster app--><g id="cluster_app"><polygon fill="none" points="335,6,370.4902,6,377.4902,28.2969,694,28.2969,694,858.41,335,858.41,335,6" style="stroke:#000000;stroke-width:1.5;"/><line style="stroke:#000000;stroke-width:1.5;" x1="335" x2="377.4902" y1="28.2969" y2="28.2969"/><text fill="#000000" font-family="sans-serif" font-size="14" font-weight="bold" lengthAdjust="spacing" textLength="29.4902" x="339" y="20.9951">app</text><text fill="#000000" font-family="sans-serif" font-size="14" font-style="italic" lengthAdjust="spacing" textLength="121.1191" x="457.9404" y="43.292">&#171;express:4.19.2&#187;</text></g><!--cluster public--><g id="cluster_public"><polygon fill="none" points="16,217.59,69.9063,217.59,76.9063,239.8869,311,239.8869,311,520.63,16,520.63,16,217.59" style="stroke:#000000;stroke-width:1.5;"/><line style="stroke:#000000;stroke-width:1.5;" x1="16" x2="76.9063" y1="239.8869" y2="239.8869"/><text fill="#000000" font-family="sans-serif" font-size="14" font-weight="bold" lengthAdjust="spacing" textLength="47.9063" x="20" y="232.5851">public</text></g><!--cluster view--><g id="cluster_view"><polygon fill="none" points="48,268.59,90.3535,268.59,97.3535,290.8869,279,290.8869,279,388.19,48,388.19,48,268.59" style="stroke:#000000;stroke-width:1.5;"/><line style="stroke:#000000;stroke-width:1.5;" x1="48" x2="97.3535" y1="290.8869" y2="290.8869"/><text fill="#000000" font-family="sans-serif" font-size="14" font-weight="bold" lengthAdjust="spacing" textLength="36.3535" x="52" y="283.5851">view</text></g><!--cluster node_modules--><g id="cluster_node_modules"><polygon fill="none" points="718,420.19,836.9229,420.19,843.9229,442.4869,1369,442.4869,1369,964.71,718,964.71,718,420.19" style="stroke:#000000;stroke-width:1.5;"/><line style="stroke:#000000;stroke-width:1.5;" x1="718" x2="843.9229" y1="442.4869" y2="442.4869"/><text fill="#000000" font-family="sans-serif" font-size="14" font-weight="bold" lengthAdjust="spacing" textLength="112.9229" x="722" y="435.1851">node_modules</text></g><!--class serverJS--><g id="elem_serverJS"><rect codeLine="5" fill="#F1F1F1" height="42.2969" id="serverJS" rx="2.5" ry="2.5" style="stroke:#181818;stroke-width:0.5;" width="65.9512" x="612.02" y="57"/><text fill="#000000" font-family="sans-serif" font-size="14" lengthAdjust="spacing" textLength="59.9512" x="615.02" y="74.9951">server.js</text><line style="stroke:#181818;stroke-width:0.5;" x1="613.02" x2="676.9712" y1="83.2969" y2="83.2969"/><line style="stroke:#181818;stroke-width:0.5;" x1="613.02" x2="676.9712" y1="91.2969" y2="91.2969"/></g><!--class appJS--><g id="elem_appJS"><rect codeLine="6" fill="#F1F1F1" height="42.2969" id="appJS" rx="2.5" ry="2.5" style="stroke:#181818;stroke-width:0.5;" width="47.9863" x="630.01" y="159.3"/><text fill="#000000" font-family="sans-serif" font-size="14" lengthAdjust="spacing" textLength="41.9863" x="633.01" y="177.2951">app.js</text><line style="stroke:#181818;stroke-width:0.5;" x1="631.01" x2="676.9963" y1="185.5969" y2="185.5969"/><line style="stroke:#181818;stroke-width:0.5;" x1="631.01" x2="676.9963" y1="193.5969" y2="193.5969"/></g><path d="M544.71,311.59 L595.2911,311.59 A3.75,3.75 0 0 1 597.7911,314.09 L604.7911,333.8869 L609.2911,333.8869 A2.5,2.5 0 0 1 611.7911,336.3869 L611.7911,361.6838 A2.5,2.5 0 0 1 609.2911,364.1838 L544.71,364.1838 A2.5,2.5 0 0 1 542.21,361.6838 L542.21,314.09 A2.5,2.5 0 0 1 544.71,311.59 " fill="#FFE4C4" style="stroke:#181818;stroke-width:0.5;"/><line style="stroke:#181818;stroke-width:0.5;" x1="542.21" x2="604.7911" y1="333.8869" y2="333.8869"/><text fill="#000000" font-family="sans-serif" font-size="14" font-weight="bold" lengthAdjust="spacing" textLength="49.5811" x="546.21" y="326.5851">router</text><path d="M568.25,452.04 L661.7539,452.04 A3.75,3.75 0 0 1 664.2539,454.54 L671.2539,474.3369 L675.7539,474.3369 A2.5,2.5 0 0 1 678.2539,476.8369 L678.2539,502.1338 A2.5,2.5 0 0 1 675.7539,504.6338 L568.25,504.6338 A2.5,2.5 0 0 1 565.75,502.1338 L565.75,454.54 A2.5,2.5 0 0 1 568.25,452.04 " fill="#FFE4C4" style="stroke:#181818;stroke-width:0.5;"/><line style="stroke:#181818;stroke-width:0.5;" x1="565.75" x2="671.2539" y1="474.3369" y2="474.3369"/><text fill="#000000" font-family="sans-serif" font-size="14" font-weight="bold" lengthAdjust="spacing" textLength="92.5039" x="569.75" y="467.0351">middleware</text><path d="M427.79,452.04 L514.2187,452.04 A3.75,3.75 0 0 1 516.7187,454.54 L523.7187,474.3369 L528.2187,474.3369 A2.5,2.5 0 0 1 530.7187,476.8369 L530.7187,502.1338 A2.5,2.5 0 0 1 528.2187,504.6338 L427.79,504.6338 A2.5,2.5 0 0 1 425.29,502.1338 L425.29,454.54 A2.5,2.5 0 0 1 427.79,452.04 " fill="#FFE4C4" style="stroke:#181818;stroke-width:0.5;"/><line style="stroke:#181818;stroke-width:0.5;" x1="425.29" x2="523.7187" y1="474.3369" y2="474.3369"/><text fill="#000000" font-family="sans-serif" font-size="14" font-weight="bold" lengthAdjust="spacing" textLength="85.4287" x="429.29" y="467.0351">controllers</text><path d="M416.07,677.23 L473.9245,677.23 A3.75,3.75 0 0 1 476.4245,679.73 L483.4245,699.5269 L487.9245,699.5269 A2.5,2.5 0 0 1 490.4245,702.0269 L490.4245,727.3238 A2.5,2.5 0 0 1 487.9245,729.8238 L416.07,729.8238 A2.5,2.5 0 0 1 413.57,727.3238 L413.57,679.73 A2.5,2.5 0 0 1 416.07,677.23 " fill="#D8F9FF" style="stroke:#181818;stroke-width:0.5;"/><line style="stroke:#181818;stroke-width:0.5;" x1="413.57" x2="483.4245" y1="699.5269" y2="699.5269"/><text fill="#000000" font-family="sans-serif" font-size="14" font-weight="bold" lengthAdjust="spacing" textLength="56.8545" x="417.57" y="692.2251">models</text><path d="M462.11,564.63 L527.8942,564.63 A3.75,3.75 0 0 1 530.3942,567.13 L537.3942,586.9269 L541.8942,586.9269 A2.5,2.5 0 0 1 544.3942,589.4269 L544.3942,614.7238 A2.5,2.5 0 0 1 541.8942,617.2238 L462.11,617.2238 A2.5,2.5 0 0 1 459.61,614.7238 L459.61,567.13 A2.5,2.5 0 0 1 462.11,564.63 " fill="#FFE4C4" style="stroke:#181818;stroke-width:0.5;"/><line style="stroke:#181818;stroke-width:0.5;" x1="459.61" x2="537.3942" y1="586.9269" y2="586.9269"/><text fill="#000000" font-family="sans-serif" font-size="14" font-weight="bold" lengthAdjust="spacing" textLength="64.7842" x="463.61" y="579.6251">services</text><path d="M434.48,789.82 L455.523,789.82 A3.75,3.75 0 0 1 458.023,792.32 L465.023,812.1169 L469.523,812.1169 A2.5,2.5 0 0 1 472.023,814.6169 L472.023,839.9138 A2.5,2.5 0 0 1 469.523,842.4138 L434.48,842.4138 A2.5,2.5 0 0 1 431.98,839.9138 L431.98,792.32 A2.5,2.5 0 0 1 434.48,789.82 " fill="#D8F9FF" style="stroke:#181818;stroke-width:0.5;"/><line style="stroke:#181818;stroke-width:0.5;" x1="431.98" x2="465.023" y1="812.1169" y2="812.1169"/><text fill="#000000" font-family="sans-serif" font-size="14" font-weight="bold" lengthAdjust="spacing" textLength="20.043" x="435.98" y="804.8151">db</text><path d="M203.02,452.04 L228.9848,452.04 A3.75,3.75 0 0 1 231.4848,454.54 L238.4848,474.3369 L242.9848,474.3369 A2.5,2.5 0 0 1 245.4848,476.8369 L245.4848,502.1338 A2.5,2.5 0 0 1 242.9848,504.6338 L203.02,504.6338 A2.5,2.5 0 0 1 200.52,502.1338 L200.52,454.54 A2.5,2.5 0 0 1 203.02,452.04 " fill="#CEFAD0" style="stroke:#181818;stroke-width:0.5;"/><line style="stroke:#181818;stroke-width:0.5;" x1="200.52" x2="238.4848" y1="474.3369" y2="474.3369"/><text fill="#000000" font-family="sans-serif" font-size="14" font-weight="bold" lengthAdjust="spacing" textLength="24.9648" x="204.52" y="467.0351">css</text><path d="M118.8,452.04 L149.2082,452.04 A3.75,3.75 0 0 1 151.7082,454.54 L158.7082,474.3369 L163.2082,474.3369 A2.5,2.5 0 0 1 165.7082,476.8369 L165.7082,502.1338 A2.5,2.5 0 0 1 163.2082,504.6338 L118.8,504.6338 A2.5,2.5 0 0 1 116.3,502.1338 L116.3,454.54 A2.5,2.5 0 0 1 118.8,452.04 " fill="#CEFAD0" style="stroke:#181818;stroke-width:0.5;"/><line style="stroke:#181818;stroke-width:0.5;" x1="116.3" x2="158.7082" y1="474.3369" y2="474.3369"/><text fill="#000000" font-family="sans-serif" font-size="14" font-weight="bold" lengthAdjust="spacing" textLength="29.4082" x="120.3" y="467.0351">img</text><path d="M50.93,452.04 L65.0618,452.04 A3.75,3.75 0 0 1 67.5618,454.54 L74.5618,474.3369 L79.0618,474.3369 A2.5,2.5 0 0 1 81.5618,476.8369 L81.5618,502.1338 A2.5,2.5 0 0 1 79.0618,504.6338 L50.93,504.6338 A2.5,2.5 0 0 1 48.43,502.1338 L48.43,454.54 A2.5,2.5 0 0 1 50.93,452.04 " fill="#FFE4C4" style="stroke:#181818;stroke-width:0.5;"/><line style="stroke:#181818;stroke-width:0.5;" x1="48.43" x2="74.5618" y1="474.3369" y2="474.3369"/><text fill="#000000" font-family="sans-serif" font-size="14" font-weight="bold" lengthAdjust="spacing" textLength="13.1318" x="52.43" y="467.0351">js</text><path d="M74.68,311.59 L125.3294,311.59 A3.75,3.75 0 0 1 127.8294,314.09 L134.8294,333.8869 L139.3294,333.8869 A2.5,2.5 0 0 1 141.8294,336.3869 L141.8294,361.6838 A2.5,2.5 0 0 1 139.3294,364.1838 L74.68,364.1838 A2.5,2.5 0 0 1 72.18,361.6838 L72.18,314.09 A2.5,2.5 0 0 1 74.68,311.59 " fill="#CEFAD0" style="stroke:#181818;stroke-width:0.5;"/><line style="stroke:#181818;stroke-width:0.5;" x1="72.18" x2="134.8294" y1="333.8869" y2="333.8869"/><text fill="#000000" font-family="sans-serif" font-size="14" font-weight="bold" lengthAdjust="spacing" textLength="49.6494" x="76.18" y="326.5851">layout</text><path d="M179.01,311.59 L218.9954,311.59 A3.75,3.75 0 0 1 221.4954,314.09 L228.4954,333.8869 L232.9954,333.8869 A2.5,2.5 0 0 1 235.4954,336.3869 L235.4954,361.6838 A2.5,2.5 0 0 1 232.9954,364.1838 L179.01,364.1838 A2.5,2.5 0 0 1 176.51,361.6838 L176.51,314.09 A2.5,2.5 0 0 1 179.01,311.59 " fill="#CEFAD0" style="stroke:#181818;stroke-width:0.5;"/><line style="stroke:#181818;stroke-width:0.5;" x1="176.51" x2="228.4954" y1="333.8869" y2="333.8869"/><text fill="#000000" font-family="sans-serif" font-size="14" font-weight="bold" lengthAdjust="spacing" textLength="38.9854" x="180.51" y="326.5851">page</text><!--entity express--><g id="elem_express"><rect fill="#F1F1F1" height="46.2969" rx="2.5" ry="2.5" style="stroke:#181818;stroke-width:0.5;" width="94.7422" x="733.63" y="455.19"/><rect fill="#F1F1F1" height="10" style="stroke:#181818;stroke-width:0.5;" width="15" x="808.3722" y="460.19"/><rect fill="#F1F1F1" height="2" style="stroke:#181818;stroke-width:0.5;" width="4" x="806.3722" y="462.19"/><rect fill="#F1F1F1" height="2" style="stroke:#181818;stroke-width:0.5;" width="4" x="806.3722" y="466.19"/><text fill="#000000" font-family="sans-serif" font-size="14" lengthAdjust="spacing" textLength="54.7422" x="748.63" y="488.1851">express</text></g><!--entity multer--><g id="elem_multer"><rect fill="#F1F1F1" height="46.2969" rx="2.5" ry="2.5" style="stroke:#181818;stroke-width:0.5;" width="86.2588" x="733.87" y="567.78"/><rect fill="#F1F1F1" height="10" style="stroke:#181818;stroke-width:0.5;" width="15" x="800.1288" y="572.78"/><rect fill="#F1F1F1" height="2" style="stroke:#181818;stroke-width:0.5;" width="4" x="798.1288" y="574.78"/><rect fill="#F1F1F1" height="2" style="stroke:#181818;stroke-width:0.5;" width="4" x="798.1288" y="578.78"/><text fill="#000000" font-family="sans-serif" font-size="14" lengthAdjust="spacing" textLength="46.2588" x="748.87" y="600.7751">multer</text></g><!--entity path--><g id="elem_path"><rect fill="#F1F1F1" height="46.2969" rx="2.5" ry="2.5" style="stroke:#181818;stroke-width:0.5;" width="71.8281" x="855.09" y="567.78"/><rect fill="#F1F1F1" height="10" style="stroke:#181818;stroke-width:0.5;" width="15" x="906.9181" y="572.78"/><rect fill="#F1F1F1" height="2" style="stroke:#181818;stroke-width:0.5;" width="4" x="904.9181" y="574.78"/><rect fill="#F1F1F1" height="2" style="stroke:#181818;stroke-width:0.5;" width="4" x="904.9181" y="578.78"/><text fill="#000000" font-family="sans-serif" font-size="14" lengthAdjust="spacing" textLength="31.8281" x="870.09" y="600.7751">path</text></g><!--entity nodemailer--><g id="elem_nodemailer"><rect fill="#F1F1F1" height="46.2969" rx="2.5" ry="2.5" style="stroke:#181818;stroke-width:0.5;" width="119.3037" x="734.35" y="680.37"/><rect fill="#F1F1F1" height="10" style="stroke:#181818;stroke-width:0.5;" width="15" x="833.6537" y="685.37"/><rect fill="#F1F1F1" height="2" style="stroke:#181818;stroke-width:0.5;" width="4" x="831.6537" y="687.37"/><rect fill="#F1F1F1" height="2" style="stroke:#181818;stroke-width:0.5;" width="4" x="831.6537" y="691.37"/><text fill="#000000" font-family="sans-serif" font-size="14" lengthAdjust="spacing" textLength="79.3037" x="749.35" y="713.3651">nodemailer</text></g><!--entity jsonwebtoken--><g id="elem_jsonwebtoken"><rect fill="#F1F1F1" height="46.2969" rx="2.5" ry="2.5" style="stroke:#181818;stroke-width:0.5;" width="137.2207" x="888.39" y="680.37"/><rect fill="#F1F1F1" height="10" style="stroke:#181818;stroke-width:0.5;" width="15" x="1005.6107" y="685.37"/><rect fill="#F1F1F1" height="2" style="stroke:#181818;stroke-width:0.5;" width="4" x="1003.6107" y="687.37"/><rect fill="#F1F1F1" height="2" style="stroke:#181818;stroke-width:0.5;" width="4" x="1003.6107" y="691.37"/><text fill="#000000" font-family="sans-serif" font-size="14" lengthAdjust="spacing" textLength="97.2207" x="903.39" y="713.3651">jsonwebtoken</text></g><!--entity bcrypt--><g id="elem_bcrypt"><rect fill="#F1F1F1" height="46.2969" rx="2.5" ry="2.5" style="stroke:#181818;stroke-width:0.5;" width="85.001" x="1060.5" y="680.37"/><rect fill="#F1F1F1" height="10" style="stroke:#181818;stroke-width:0.5;" width="15" x="1125.501" y="685.37"/><rect fill="#F1F1F1" height="2" style="stroke:#181818;stroke-width:0.5;" width="4" x="1123.501" y="687.37"/><rect fill="#F1F1F1" height="2" style="stroke:#181818;stroke-width:0.5;" width="4" x="1123.501" y="691.37"/><text fill="#000000" font-family="sans-serif" font-size="14" lengthAdjust="spacing" textLength="45.001" x="1075.5" y="713.3651">bcrypt</text></g><!--entity morgan--><g id="elem_morgan"><rect fill="#F1F1F1" height="46.2969" rx="2.5" ry="2.5" style="stroke:#181818;stroke-width:0.5;" width="94.2979" x="1258.85" y="455.19"/><rect fill="#F1F1F1" height="10" style="stroke:#181818;stroke-width:0.5;" width="15" x="1333.1479" y="460.19"/><rect fill="#F1F1F1" height="2" style="stroke:#181818;stroke-width:0.5;" width="4" x="1331.1479" y="462.19"/><rect fill="#F1F1F1" height="2" style="stroke:#181818;stroke-width:0.5;" width="4" x="1331.1479" y="466.19"/><text fill="#000000" font-family="sans-serif" font-size="14" lengthAdjust="spacing" textLength="54.2979" x="1273.85" y="488.1851">morgan</text></g><!--entity cookieParser--><g id="elem_cookieParser"><rect fill="#F1F1F1" height="46.2969" rx="2.5" ry="2.5" style="stroke:#181818;stroke-width:0.5;" width="135.375" x="863.31" y="455.19"/><rect fill="#F1F1F1" height="10" style="stroke:#181818;stroke-width:0.5;" width="15" x="978.685" y="460.19"/><rect fill="#F1F1F1" height="2" style="stroke:#181818;stroke-width:0.5;" width="4" x="976.685" y="462.19"/><rect fill="#F1F1F1" height="2" style="stroke:#181818;stroke-width:0.5;" width="4" x="976.685" y="466.19"/><text fill="#000000" font-family="sans-serif" font-size="14" lengthAdjust="spacing" textLength="95.375" x="878.31" y="488.1851">cookie-parser</text></g><!--entity pg--><g id="elem_pg"><rect fill="#F1F1F1" height="46.2969" rx="2.5" ry="2.5" style="stroke:#181818;stroke-width:0.5;" width="57.7734" x="764.11" y="792.97"/><rect fill="#F1F1F1" height="10" style="stroke:#181818;stroke-width:0.5;" width="15" x="801.8834" y="797.97"/><rect fill="#F1F1F1" height="2" style="stroke:#181818;stroke-width:0.5;" width="4" x="799.8834" y="799.97"/><rect fill="#F1F1F1" height="2" style="stroke:#181818;stroke-width:0.5;" width="4" x="799.8834" y="803.97"/><text fill="#000000" font-family="sans-serif" font-size="14" lengthAdjust="spacing" textLength="17.7734" x="779.11" y="825.9651">pg</text></g><!--entity dotenv--><g id="elem_dotenv"><rect fill="#F1F1F1" height="46.2969" rx="2.5" ry="2.5" style="stroke:#181818;stroke-width:0.5;" width="88.7129" x="1033.64" y="455.19"/><rect fill="#F1F1F1" height="10" style="stroke:#181818;stroke-width:0.5;" width="15" x="1102.3529" y="460.19"/><rect fill="#F1F1F1" height="2" style="stroke:#181818;stroke-width:0.5;" width="4" x="1100.3529" y="462.19"/><rect fill="#F1F1F1" height="2" style="stroke:#181818;stroke-width:0.5;" width="4" x="1100.3529" y="466.19"/><text fill="#000000" font-family="sans-serif" font-size="14" lengthAdjust="spacing" textLength="48.7129" x="1048.64" y="488.1851">dotenv</text></g><!--entity pug--><g id="elem_pug"><rect fill="#F1F1F1" height="46.2969" rx="2.5" ry="2.5" style="stroke:#181818;stroke-width:0.5;" width="66.6465" x="1157.68" y="455.19"/><rect fill="#F1F1F1" height="10" style="stroke:#181818;stroke-width:0.5;" width="15" x="1204.3265" y="460.19"/><rect fill="#F1F1F1" height="2" style="stroke:#181818;stroke-width:0.5;" width="4" x="1202.3265" y="462.19"/><rect fill="#F1F1F1" height="2" style="stroke:#181818;stroke-width:0.5;" width="4" x="1202.3265" y="466.19"/><text fill="#000000" font-family="sans-serif" font-size="14" lengthAdjust="spacing" textLength="26.6465" x="1172.68" y="488.1851">pug</text></g><!--entity tailwindcss--><g id="elem_tailwindcss"><rect fill="#F1F1F1" height="46.2969" rx="2.5" ry="2.5" style="stroke:#181818;stroke-width:0.5;" width="117.2324" x="734.38" y="902.41"/><rect fill="#F1F1F1" height="10" style="stroke:#181818;stroke-width:0.5;" width="15" x="831.6124" y="907.41"/><rect fill="#F1F1F1" height="2" style="stroke:#181818;stroke-width:0.5;" width="4" x="829.6124" y="909.41"/><rect fill="#F1F1F1" height="2" style="stroke:#181818;stroke-width:0.5;" width="4" x="829.6124" y="913.41"/><text fill="#000000" font-family="sans-serif" font-size="14" lengthAdjust="spacing" textLength="77.2324" x="749.38" y="935.4051">tailwindcss</text></g><!--link serverJS to appJS--><g id="link_serverJS_appJS"><path codeLine="40" d="M646.82,99.44 C648.37,116.73 650.0533,135.4841 651.6133,152.8541 " fill="none" id="serverJS-to-appJS" style="stroke:#181818;stroke-width:1.0;stroke-dasharray:7.0,7.0;"/><polygon fill="#181818" points="652.15,158.83,655.3289,149.5083,651.7028,153.85,647.361,150.2239,652.15,158.83" style="stroke:#181818;stroke-width:1.0;"/></g><!--link appJS to router--><g id="link_appJS_router"><path codeLine="42" d="M643.77,202.09 C629.82,230.25 607.5036,275.3136 592.3636,305.8736 " fill="none" id="appJS-to-router" style="stroke:#181818;stroke-width:1.0;stroke-dasharray:7.0,7.0;"/><polygon fill="#181818" points="589.7,311.25,597.2796,304.9611,591.9196,306.7697,590.1111,301.4097,589.7,311.25" style="stroke:#181818;stroke-width:1.0;"/></g><!--link appJS to db--><!--link appJS to morgan--><g id="link_appJS_morgan"><path codeLine="44" d="M678.21,181.94 C763.24,183.82 1045.05,191.38 1081,209.59 C1190.95,265.29 1265.3041,395.6548 1292.4941,449.4648 " fill="none" id="appJS-to-morgan" style="stroke:#181818;stroke-width:1.0;stroke-dasharray:7.0,7.0;"/><polygon fill="#181818" points="1295.2,454.82,1294.7112,444.9833,1292.945,450.3574,1287.571,448.5912,1295.2,454.82" style="stroke:#181818;stroke-width:1.0;"/></g><!--link appJS to cookieParser--><g id="link_appJS_cookieParser"><path codeLine="45" d="M678.19,185.99 C695.06,190.06 717.43,197.33 734,209.59 C826.99,278.45 892.5058,398.299 917.6958,449.369 " fill="none" id="appJS-to-cookieParser" style="stroke:#181818;stroke-width:1.0;stroke-dasharray:7.0,7.0;"/><polygon fill="#181818" points="920.35,454.75,919.9561,444.909,918.1382,450.2658,912.7814,448.4479,920.35,454.75" style="stroke:#181818;stroke-width:1.0;"/></g><!--link appJS to express--><g id="link_appJS_express"><path codeLine="46" d="M662.73,201.78 C685.65,255.18 745.053,393.5966 768.983,449.3366 " fill="none" id="appJS-to-express" style="stroke:#181818;stroke-width:1.0;stroke-dasharray:7.0,7.0;"/><polygon fill="#181818" points="771.35,454.85,771.4751,445.0019,769.3775,450.2555,764.1239,448.1579,771.35,454.85" style="stroke:#181818;stroke-width:1.0;"/></g><!--link appJS to dotenv--><g id="link_appJS_dotenv"><path codeLine="47" d="M678.45,183.11 C722.17,186.42 811.72,194.81 839,209.59 C949.94,269.7 1031.8955,397.0523 1062.5655,449.8323 " fill="none" id="appJS-to-dotenv" style="stroke:#181818;stroke-width:1.0;stroke-dasharray:7.0,7.0;"/><polygon fill="#181818" points="1065.58,455.02,1064.5167,445.2287,1063.0679,450.6969,1057.5997,449.2481,1065.58,455.02" style="stroke:#181818;stroke-width:1.0;"/></g><!--link appJS to pug--><g id="link_appJS_pug"><path codeLine="48" d="M678.38,181.41 C741.88,181.67 910.84,184.74 960,209.59 C1071.22,265.82 1148.5041,395.9265 1176.8941,449.5865 " fill="none" id="appJS-to-pug" style="stroke:#181818;stroke-width:1.0;stroke-dasharray:7.0,7.0;"/><polygon fill="#181818" points="1179.7,454.89,1179.0268,445.0642,1177.3617,450.4704,1171.9555,448.8054,1179.7,454.89" style="stroke:#181818;stroke-width:1.0;"/></g><!--reverse link view to appJS--><!--reverse link view to router--><g id="link_view_router"><path codeLine="51" d="M286.0441,337.89 C288.8588,337.89 285.6734,337.89 288.4881,337.89 C294.1175,337.89 299.7469,337.89 305.3763,337.89 C316.635,337.89 327.8938,337.89 339.1525,337.89 C361.67,337.89 384.1875,337.89 406.705,337.89 C451.74,337.89 496.775,337.89 541.81,337.89 " fill="none" id="view-backto-router" style="stroke:#181818;stroke-width:1.0;stroke-dasharray:7.0,7.0;"/><polygon fill="#181818" points="280.0441,337.89,289.0441,341.89,285.0441,337.89,289.0441,333.89,280.0441,337.89" style="stroke:#181818;stroke-width:1.0;"/></g><!--link router to express--><g id="link_router_express"><path codeLine="52" d="M611.36,364.63 C629.43,377.49 652.29,392.7 674,404.19 C682.46,408.66 685.65,407.5 694,412.19 C715.72,424.38 733.5152,437.5341 750.1752,451.0841 " fill="none" id="router-to-express" style="stroke:#181818;stroke-width:1.0;stroke-dasharray:7.0,7.0;"/><polygon fill="#181818" points="754.83,454.87,750.3717,446.088,750.951,451.7151,745.3239,452.2944,754.83,454.87" style="stroke:#181818;stroke-width:1.0;"/></g><!--link router to middleware--><g id="link_router_middleware"><path codeLine="53" d="M585.36,364.61 C593.44,389.47 603.7648,421.234 611.8348,446.054 " fill="none" id="router-to-middleware" style="stroke:#181818;stroke-width:1.0;stroke-dasharray:7.0,7.0;"/><polygon fill="#181818" points="613.69,451.76,614.7111,441.9642,612.144,447.005,607.1032,444.4379,613.69,451.76" style="stroke:#181818;stroke-width:1.0;"/></g><!--link router to controllers--><g id="link_router_controllers"><path codeLine="54" d="M558.61,364.61 C540.83,389.47 517.5302,422.0596 499.7802,446.8796 " fill="none" id="router-to-controllers" style="stroke:#181818;stroke-width:1.0;stroke-dasharray:7.0,7.0;"/><polygon fill="#181818" points="496.29,451.76,504.7789,446.7662,499.1985,447.693,498.2717,442.1126,496.29,451.76" style="stroke:#181818;stroke-width:1.0;"/></g><!--link router to models--><g id="link_router_models"><path codeLine="55" d="M541.99,342.88 C501.81,349.53 437.66,367 408,412.19 C352.89,496.15 405.8466,617.5205 434.4766,671.4505 " fill="none" id="router-to-models" style="stroke:#181818;stroke-width:1.0;stroke-dasharray:7.0,7.0;"/><polygon fill="#181818" points="437.29,676.75,436.603,666.9251,434.9455,672.3337,429.5369,670.6763,437.29,676.75" style="stroke:#181818;stroke-width:1.0;"/></g><!--link middleware to multer--><g id="link_middleware_multer"><path codeLine="57" d="M657.95,504.99 C684.42,523.87 715.1966,545.824 740.5666,563.934 " fill="none" id="middleware-to-multer" style="stroke:#181818;stroke-width:1.0;stroke-dasharray:7.0,7.0;"/><polygon fill="#181818" points="745.45,567.42,740.4488,558.9354,741.3805,564.515,735.8009,565.4467,745.45,567.42" style="stroke:#181818;stroke-width:1.0;"/></g><!--link middleware to path--><g id="link_middleware_path"><path codeLine="58" d="M667.59,504.9 C683.28,513.12 701.14,521.84 718,528.63 C769.65,549.44 786.05,544.58 838,564.63 C843.52,566.76 843.7891,566.7342 849.3691,569.2742 " fill="none" id="middleware-to-path" style="stroke:#181818;stroke-width:1.0;stroke-dasharray:7.0,7.0;"/><polygon fill="#181818" points="854.83,571.76,848.2959,564.3908,850.2793,569.6885,844.9815,571.6719,854.83,571.76" style="stroke:#181818;stroke-width:1.0;"/></g><!--link middleware to jsonwebtoken--><g id="link_middleware_jsonwebtoken"><path codeLine="59" d="M633.36,505.12 C648.16,535.93 676.86,587.08 716,617.23 C730.15,628.13 816.1234,657.1967 882.2034,678.6567 " fill="none" id="middleware-to-jsonwebtoken" style="stroke:#181818;stroke-width:1.0;stroke-dasharray:7.0,7.0;"/><polygon fill="#181818" points="887.91,680.51,880.5856,673.9257,883.1545,678.9656,878.1146,681.5345,887.91,680.51" style="stroke:#181818;stroke-width:1.0;"/></g><!--reverse link view to middleware--><g id="link_view_middleware"><path codeLine="60" d="M282.3741,356.6446 C283.348,358.0716 281.3935,355.1441 282.52,356.7124 C284.773,359.8488 287.3241,363.2316 290.1438,366.7163 C301.4225,380.655 317,396.225 335,404.19 C378.32,423.35 504.01,394.63 548,412.19 C568.83,420.5 587.71,437.36 601.2,451.85 " fill="none" id="view-backto-middleware" style="stroke:#181818;stroke-width:1.0;stroke-dasharray:7.0,7.0;"/><polygon fill="#181818" points="279.0061,351.679,280.7478,361.3727,281.8128,355.817,287.3685,356.882,279.0061,351.679" style="stroke:#181818;stroke-width:1.0;"/></g><!--link controllers to services--><g id="link_controllers_services"><path codeLine="62" d="M483.57,504.99 C487.44,522.85 491.318,540.7164 495.188,558.5564 " fill="none" id="controllers-to-services" style="stroke:#181818;stroke-width:1.0;stroke-dasharray:7.0,7.0;"/><polygon fill="#181818" points="496.46,564.42,498.4611,554.7766,495.4,559.5336,490.6429,556.4726,496.46,564.42" style="stroke:#181818;stroke-width:1.0;"/></g><!--link services to models--><g id="link_services_models"><path codeLine="64" d="M490.4,617.58 C482.33,635.45 474.074,653.7138 466.004,671.5438 " fill="none" id="services-to-models" style="stroke:#181818;stroke-width:1.0;stroke-dasharray:7.0,7.0;"/><polygon fill="#181818" points="463.53,677.01,470.8852,670.4601,465.5917,672.4548,463.5969,667.1614,463.53,677.01" style="stroke:#181818;stroke-width:1.0;"/></g><!--link services to nodemailer--><g id="link_services_nodemailer"><path codeLine="65" d="M544.77,608.13 C594.83,627.09 672.419,656.4748 728.789,677.8248 " fill="none" id="services-to-nodemailer" style="stroke:#181818;stroke-width:1.0;stroke-dasharray:7.0,7.0;"/><polygon fill="#181818" points="734.4,679.95,727.4002,673.0216,729.7241,678.179,724.5667,680.5029,734.4,679.95" style="stroke:#181818;stroke-width:1.0;"/></g><!--link services to jsonwebtoken--><g id="link_services_jsonwebtoken"><path codeLine="66" d="M544.81,600.97 C613.79,615.72 753.66,646.43 871,677.23 C876.57,678.69 876.5534,678.6281 882.3234,680.2481 " fill="none" id="services-to-jsonwebtoken" style="stroke:#181818;stroke-width:1.0;stroke-dasharray:7.0,7.0;"/><polygon fill="#181818" points="888.1,681.87,880.5163,675.5861,883.2861,680.5184,878.3538,683.2883,888.1,681.87" style="stroke:#181818;stroke-width:1.0;"/></g><!--link services to bcrypt--><g id="link_services_bcrypt"><path codeLine="67" d="M544.67,597.3 C655.19,611.41 948.7,650.35 1043,677.23 C1048.65,678.84 1048.8793,678.7139 1054.5793,680.8739 " fill="none" id="services-to-bcrypt" style="stroke:#181818;stroke-width:1.0;stroke-dasharray:7.0,7.0;"/><polygon fill="#181818" points="1060.19,683,1053.1914,676.0703,1055.5144,681.2282,1050.3566,683.5512,1060.19,683" style="stroke:#181818;stroke-width:1.0;"/></g><!--link services to view--><g id="link_services_view"><path codeLine="68" d="M459.34,566.72 C442.34,556.33 423.23,543.15 408,528.63 C370.95,493.3 337.1825,446.7825 312.4425,408.65 C300.0725,389.5838 289.9594,372.6138 282.8213,360.1866 C281.929,358.6332 281.0832,357.1507 280.2853,355.7441 C279.8864,355.0408 282.446,359.583 282.0712,358.9181 " fill="none" id="services-to-view" style="stroke:#181818;stroke-width:1.0;stroke-dasharray:7.0,7.0;"/><polygon fill="#181818" points="279.1246,353.6915,280.0601,363.4958,281.5801,358.047,287.0289,359.567,279.1246,353.6915" style="stroke:#181818;stroke-width:1.0;"/></g><!--link models to db--><g id="link_models_db"><path codeLine="70" d="M452,730.17 C452,748.04 452,765.77 452,783.6 " fill="none" id="models-to-db" style="stroke:#181818;stroke-width:1.0;stroke-dasharray:7.0,7.0;"/><polygon fill="#181818" points="452,789.6,456,780.6,452,784.6,448,780.6,452,789.6" style="stroke:#181818;stroke-width:1.0;"/></g><!--link db to pg--><g id="link_db_pg"><path codeLine="71" d="M472.31,816.12 C569.5,816.12 660.69,816.12 757.88,816.12 " fill="none" id="db-to-pg" style="stroke:#181818;stroke-width:1.0;stroke-dasharray:7.0,7.0;"/><polygon fill="#181818" points="763.88,816.12,754.88,812.12,758.88,816.12,754.88,820.12,763.88,816.12" style="stroke:#181818;stroke-width:1.0;"/></g><!--link layout to css--><g id="link_layout_css"><path codeLine="73" d="M122.25,364.53 C131.41,378 144.15,393.81 159,404.19 C168.22,410.63 174.19,405.2 183,412.19 C195.99,422.5 203.1759,432.9039 209.8359,446.3439 " fill="none" id="layout-to-css" style="stroke:#181818;stroke-width:1.0;stroke-dasharray:7.0,7.0;"/><polygon fill="#181818" points="212.5,451.72,212.088,441.8798,210.2799,447.2399,204.9198,445.4318,212.5,451.72" style="stroke:#181818;stroke-width:1.0;"/></g><!--link css to tailwindcss--><g id="link_css_tailwindcss"><path codeLine="74" d="M221.67,505.08 C219.6,575.41 224.43,771.82 335,866.41 C393.77,916.7 618.2401,924.174 728.1201,924.834 " fill="none" id="css-to-tailwindcss" style="stroke:#181818;stroke-width:1.0;stroke-dasharray:7.0,7.0;"/><polygon fill="#181818" points="734.12,924.87,725.1442,920.816,729.1201,924.84,725.0961,928.8159,734.12,924.87" style="stroke:#181818;stroke-width:1.0;"/></g><!--link view to css--><!--reverse link img to css--><!--reverse link js to img--><!--reverse link morgan to express--><!--reverse link cookieParser to morgan--><!--reverse link dotenv to cookieParser--><!--reverse link pug to dotenv--><!--link express to path--><!--reverse link path to multer--><!--link multer to bcrypt--><!--reverse link nodemailer to bcrypt--><!--reverse link jsonwebtoken to nodemailer--><!--link nodemailer to pg--><!--link pg to tailwindcss--><!--SRC=[TLJ1RjmW4Btp5IWvz5IhhNfegcW_8ATAEKPHXCsibrqC1EnrLgjyLB-XFzR1O1cmrmTZlpVC33DlS2UX3BEieww_IC2t5Kq_T98mAVNureaFeLf236jEh0NAZA6FZ_1XB3Zt-sVr_Q7wiTjT2SMdaSmvUkV0di5MHtT7cQFXx-avjK0dCusVaPiZM3tqOEbzBTpx0FJwcR6Tu5p2o2pSicYqwgsM4goxwKHpaCZoN_k7_RvaVSQYWPkxUPtk_5ngOuPQYePUytJmmFSDx1d_LZeINNkBEjwCVXOmXWWfAja5orPwIosCVnLybht2ehnXPGO9BlPJTqOhK3sD_IxGRf3OgG8qh3yKaFVSCI5NjaUdrGXrhq-W2gfkxCNqPK1jMrPQlZHQdmHyHHLZvrwzg0BoPmBAzDe2uBe7TIwjXjAin_n7eJYsqnTjLZMjUBMB8YRJ4f0WuXbvEQ1gGRqYmUiPn9zudWN84b_WkVmB4hDU09zn4Kt2lfyOhyhAwuQGE5pL1ZTJIRm4MkOkHPDPouod-I8a6TO93defq4am1PO98-MspfGElDyyps_eqZJ9IL8PbYWpmxFu6HDrcM4XZNYfLA79U4bKLhI7ALkyF-E0-ffXOVsbW9-fgCWNBXpy-wk9TxTqaUjHfRkAxk8TGlmzKk97z1ZRkEAYxCAoOZCDfZyhooZ2i6pehjr88HudD7tImtgZvrPat1Zh7vRLrgIVo-T6RPBkRXhEMRR4j2iqwTf_]--></g></svg>